<svg width="51" height="52" viewBox="0 0 51 52" fill="none" xmlns="http://www.w3.org/2000/svg">
<rect y="0.5" width="51" height="51" rx="25.5" fill="#1D2F7B"/>
<mask id="mask0_2068_2416" style="mask-type:alpha" maskUnits="userSpaceOnUse" x="11" y="11" width="30" height="31">
<rect x="11" y="11.5" width="30" height="30" fill="#D9D9D9"/>
</mask>
<g mask="url(#mask0_2068_2416)">
<path d="M17.6347 37.125C17.0032 37.125 16.4688 36.9062 16.0313 36.4688C15.5938 36.0312 15.375 35.4968 15.375 34.8653V18.1347C15.375 17.5032 15.5938 16.9688 16.0313 16.5313C16.4688 16.0938 17.0032 15.875 17.6347 15.875H34.3653C34.9968 15.875 35.5312 16.0938 35.9688 16.5313C36.4062 16.9688 36.625 17.5032 36.625 18.1347V34.8653C36.625 35.4968 36.4062 36.0312 35.9688 36.4688C35.5312 36.9062 34.9968 37.125 34.3653 37.125H17.6347ZM17.25 22.3269H34.75V18.1347C34.75 18.0384 34.7099 17.9503 34.6297 17.8703C34.5497 17.7901 34.4616 17.75 34.3653 17.75H17.6347C17.5384 17.75 17.4503 17.7901 17.3703 17.8703C17.2901 17.9503 17.25 18.0384 17.25 18.1347V22.3269ZM17.25 28.7981H34.75V24.2019H17.25V28.7981ZM17.6347 35.25H34.3653C34.4616 35.25 34.5497 35.2099 34.6297 35.1297C34.7099 35.0497 34.75 34.9616 34.75 34.8653V30.6731H17.25V34.8653C17.25 34.9616 17.2901 35.0497 17.3703 35.1297C17.4503 35.2099 17.5384 35.25 17.6347 35.25ZM20.1084 21.1588C19.7878 21.1588 19.5197 21.0502 19.3041 20.8331C19.0886 20.6162 18.9809 20.3475 18.9809 20.0269C18.9809 19.706 19.0894 19.4379 19.3062 19.2225C19.5231 19.0069 19.792 18.8991 20.1128 18.8991C20.4334 18.8991 20.7016 19.0075 20.9172 19.2244C21.1326 19.4415 21.2403 19.7103 21.2403 20.0309C21.2403 20.3518 21.1319 20.6199 20.915 20.8353C20.6981 21.0509 20.4293 21.1588 20.1084 21.1588ZM20.1084 27.6297C19.7878 27.6297 19.5197 27.5213 19.3041 27.3044C19.0886 27.0875 18.9809 26.8186 18.9809 26.4978C18.9809 26.1772 19.0894 25.9091 19.3062 25.6934C19.5231 25.478 19.792 25.3703 20.1128 25.3703C20.4334 25.3703 20.7016 25.4788 20.9172 25.6956C21.1326 25.9125 21.2403 26.1814 21.2403 26.5022C21.2403 26.8228 21.1319 27.0909 20.915 27.3066C20.6981 27.522 20.4293 27.6297 20.1084 27.6297ZM20.1084 34.1009C19.7878 34.1009 19.5197 33.9925 19.3041 33.7756C19.0886 33.5585 18.9809 33.2897 18.9809 32.9691C18.9809 32.6482 19.0894 32.3801 19.3062 32.1647C19.5231 31.9491 19.792 31.8413 20.1128 31.8413C20.4334 31.8413 20.7016 31.9498 20.9172 32.1669C21.1326 32.3837 21.2403 32.6525 21.2403 32.9731C21.2403 33.294 21.1319 33.5621 20.915 33.7775C20.6981 33.9931 20.4293 34.1009 20.1084 34.1009Z" fill="#D0D8FB"/>
</g>
</svg>
