<svg width="51" height="52" viewBox="0 0 51 52" fill="none" xmlns="http://www.w3.org/2000/svg">
<rect y="0.5" width="51" height="51" rx="25.5" fill="#6B461F"/>
<mask id="mask0_2068_2420" style="mask-type:alpha" maskUnits="userSpaceOnUse" x="11" y="11" width="30" height="31">
<rect x="11" y="11.5" width="30" height="30" fill="#D9D9D9"/>
</mask>
<g mask="url(#mask0_2068_2420)">
<path d="M24.75 34C27.1667 34 29.2292 33.1491 30.9375 31.4472C32.6458 29.7453 33.5 27.6796 33.5 25.25C33.5 22.8333 32.6458 20.7708 30.9375 19.0625C29.2292 17.3542 27.1667 16.5 24.75 16.5C22.3204 16.5 20.2547 17.3542 18.5528 19.0625C16.8509 20.7708 16 22.8333 16 25.25C16 27.6796 16.8509 29.7453 18.5528 31.4472C20.2547 33.1491 22.3204 34 24.75 34ZM24.75 30.0578C23.2821 30.0578 21.9255 29.6707 20.6803 28.8966C19.4351 28.1226 18.4559 27.089 17.7428 25.7956C17.6466 25.6242 17.5984 25.4423 17.5984 25.25C17.5984 25.0577 17.6466 24.8758 17.7428 24.7044C18.4559 23.411 19.4371 22.3774 20.6863 21.6034C21.9354 20.8293 23.29 20.4422 24.75 20.4422C26.21 20.4422 27.5594 20.8325 28.7981 21.6131C30.0369 22.3935 31.0128 23.424 31.7259 24.7044C31.8222 24.8758 31.8703 25.0577 31.8703 25.25C31.8703 25.4423 31.8222 25.6242 31.7259 25.7956C31.0128 27.089 30.0369 28.1226 28.7981 28.8966C27.5594 29.6707 26.21 30.0578 24.75 30.0578ZM24.75 28.5672C25.9358 28.5672 27.028 28.2731 28.0266 27.685C29.0249 27.0969 29.8109 26.2852 30.3847 25.25C29.8109 24.2275 29.0249 23.419 28.0266 22.8244C27.028 22.23 25.9358 21.9328 24.75 21.9328C23.5513 21.9328 22.4507 22.23 21.4484 22.8244C20.4459 23.419 19.6578 24.2275 19.0841 25.25C19.6578 26.2852 20.4459 27.0969 21.4484 27.685C22.4507 28.2731 23.5513 28.5672 24.75 28.5672ZM24.75 27.125C25.2708 27.125 25.7135 26.9459 26.0781 26.5878C26.4427 26.2297 26.625 25.7837 26.625 25.25C26.625 24.7292 26.4427 24.2865 26.0781 23.9219C25.7135 23.5573 25.2708 23.375 24.75 23.375C24.2163 23.375 23.7703 23.5573 23.4122 23.9219C23.0541 24.2865 22.875 24.7292 22.875 25.25C22.875 25.7837 23.0541 26.2297 23.4122 26.5878C23.7703 26.9459 24.2163 27.125 24.75 27.125ZM24.75 35.875C23.2756 35.875 21.8943 35.5961 20.6059 35.0384C19.3174 34.4807 18.194 33.7227 17.2356 32.7644C16.2773 31.806 15.5193 30.6826 14.9616 29.3941C14.4039 28.1057 14.125 26.7244 14.125 25.25C14.125 23.7885 14.4039 22.4135 14.9616 21.125C15.5193 19.8365 16.2773 18.7099 17.2356 17.7453C18.194 16.7805 19.3174 16.0193 20.6059 15.4616C21.8943 14.9039 23.2756 14.625 24.75 14.625C26.2115 14.625 27.5865 14.9039 28.875 15.4616C30.1635 16.0193 31.2901 16.7805 32.2547 17.7453C33.2195 18.7099 33.9807 19.8365 34.5384 21.125C35.0961 22.4135 35.375 23.7885 35.375 25.25C35.375 26.5513 35.1543 27.7796 34.7128 28.935C34.2711 30.0904 33.6609 31.1377 32.8822 32.0769L37.2284 36.4231C37.4143 36.609 37.502 36.8245 37.4916 37.0697C37.4811 37.3149 37.383 37.5304 37.1972 37.7162C37.0111 37.8894 36.7935 37.9759 36.5444 37.9759C36.2952 37.9759 36.0777 37.8894 35.8919 37.7162L31.5578 33.4012C30.6186 34.1802 29.5714 34.7872 28.4159 35.2222C27.2605 35.6574 26.0385 35.875 24.75 35.875Z" fill="#FFF8E7"/>
</g>
</svg>
