<svg width="51" height="52" viewBox="0 0 51 52" fill="none" xmlns="http://www.w3.org/2000/svg">
<rect y="0.5" width="51" height="51" rx="25.5" fill="#5C1374"/>
<mask id="mask0_2068_2424" style="mask-type:alpha" maskUnits="userSpaceOnUse" x="11" y="11" width="30" height="31">
<rect x="11" y="11.5" width="30" height="30" fill="#D9D9D9"/>
</mask>
<g mask="url(#mask0_2068_2424)">
<path d="M24.1881 34.25L30.6568 26.5H25.6568L26.5631 19.4063L20.7818 27.75H25.1256L24.1881 34.25ZM22.9718 29.625H19.169C18.749 29.625 18.4413 29.4391 18.2459 29.0672C18.0503 28.6955 18.0743 28.3374 18.3181 27.9928L26.5078 16.1781C26.6761 15.9425 26.8909 15.7814 27.1521 15.6947C27.4132 15.6082 27.6847 15.6155 27.9668 15.7166C28.2489 15.8174 28.4553 15.99 28.5859 16.2344C28.7165 16.4788 28.7649 16.742 28.7312 17.0241L27.7915 24.625H32.4549C32.9004 24.625 33.2144 24.8246 33.3971 25.2238C33.5798 25.6227 33.5262 25.9945 33.2362 26.3391L24.1809 37.185C23.9998 37.3998 23.7787 37.5389 23.5174 37.6022C23.2562 37.6653 23.0014 37.64 22.7531 37.5263C22.5047 37.4125 22.312 37.2386 22.1749 37.0047C22.0379 36.7707 21.9862 36.5127 22.0199 36.2306L22.9718 29.625Z" fill="#E8A3FE"/>
</g>
</svg>
