<svg width="51" height="52" viewBox="0 0 51 52" fill="none" xmlns="http://www.w3.org/2000/svg">
<rect y="0.5" width="51" height="51" rx="25.5" fill="#666657"/>
<mask id="mask0_2068_2428" style="mask-type:alpha" maskUnits="userSpaceOnUse" x="11" y="11" width="30" height="31">
<rect x="11" y="11.5" width="30" height="30" fill="#D9D9D9"/>
</mask>
<g mask="url(#mask0_2068_2428)">
<path d="M21.1922 31.3078V33.0625C21.1922 33.2773 21.2627 33.4552 21.4038 33.5963C21.5448 33.7373 21.7227 33.8078 21.9375 33.8078C22.1523 33.8078 22.3302 33.7373 22.4712 33.5963C22.6123 33.4552 22.6828 33.2773 22.6828 33.0625V31.3078H24.4375C24.6523 31.3078 24.8302 31.2373 24.9712 31.0963C25.1123 30.9552 25.1828 30.7773 25.1828 30.5625C25.1828 30.3477 25.1123 30.1698 24.9712 30.0288C24.8302 29.8877 24.6523 29.8172 24.4375 29.8172H22.6828V28.0625C22.6828 27.8477 22.6123 27.6698 22.4712 27.5288C22.3302 27.3877 22.1523 27.3172 21.9375 27.3172C21.7227 27.3172 21.5448 27.3877 21.4038 27.5288C21.2627 27.6698 21.1922 27.8477 21.1922 28.0625V29.8172H19.4375C19.2227 29.8172 19.0448 29.8877 18.9037 30.0288C18.7627 30.1698 18.6922 30.3477 18.6922 30.5625C18.6922 30.7773 18.7627 30.9552 18.9037 31.0963C19.0448 31.2373 19.2227 31.3078 19.4375 31.3078H21.1922ZM28.1875 32.8703H32.5625C32.7773 32.8703 32.9552 32.7998 33.0963 32.6587C33.2373 32.5177 33.3078 32.3398 33.3078 32.125C33.3078 31.9102 33.2373 31.7323 33.0963 31.5913C32.9552 31.4502 32.7773 31.3797 32.5625 31.3797H28.1875C27.9727 31.3797 27.7948 31.4502 27.6537 31.5913C27.5127 31.7323 27.4422 31.9102 27.4422 32.125C27.4422 32.3398 27.5127 32.5177 27.6537 32.6587C27.7948 32.7998 27.9727 32.8703 28.1875 32.8703ZM28.1875 29.7453H32.5625C32.7773 29.7453 32.9552 29.6748 33.0963 29.5338C33.2373 29.3927 33.3078 29.2148 33.3078 29C33.3078 28.7852 33.2373 28.6073 33.0963 28.4663C32.9552 28.3252 32.7773 28.2547 32.5625 28.2547H28.1875C27.9727 28.2547 27.7948 28.3252 27.6537 28.4663C27.5127 28.6073 27.4422 28.7852 27.4422 29C27.4422 29.2148 27.5127 29.3927 27.6537 29.5338C27.7948 29.6748 27.9727 29.7453 28.1875 29.7453ZM19.75 22.8078H24.125C24.3398 22.8078 24.5177 22.7373 24.6587 22.5963C24.7998 22.4552 24.8703 22.2773 24.8703 22.0625C24.8703 21.8477 24.7998 21.6698 24.6587 21.5287C24.5177 21.3877 24.3398 21.3172 24.125 21.3172H19.75C19.5352 21.3172 19.3573 21.3877 19.2163 21.5287C19.0752 21.6698 19.0047 21.8477 19.0047 22.0625C19.0047 22.2773 19.0752 22.4552 19.2163 22.5963C19.3573 22.7373 19.5352 22.8078 19.75 22.8078ZM17.6347 37.125C17.0032 37.125 16.4688 36.9062 16.0313 36.4688C15.5938 36.0312 15.375 35.4968 15.375 34.8653V18.1347C15.375 17.5032 15.5938 16.9688 16.0313 16.5313C16.4688 16.0938 17.0032 15.875 17.6347 15.875H34.3653C34.9968 15.875 35.5312 16.0938 35.9688 16.5313C36.4062 16.9688 36.625 17.5032 36.625 18.1347V34.8653C36.625 35.4968 36.4062 36.0312 35.9688 36.4688C35.5312 36.9062 34.9968 37.125 34.3653 37.125H17.6347ZM17.6347 35.25H34.3653C34.4616 35.25 34.5497 35.2099 34.6297 35.1297C34.7099 35.0497 34.75 34.9616 34.75 34.8653V18.1347C34.75 18.0384 34.7099 17.9503 34.6297 17.8703C34.5497 17.7901 34.4616 17.75 34.3653 17.75H17.6347C17.5384 17.75 17.4503 17.7901 17.3703 17.8703C17.2901 17.9503 17.25 18.0384 17.25 18.1347V34.8653C17.25 34.9616 17.2901 35.0497 17.3703 35.1297C17.4503 35.2099 17.5384 35.25 17.6347 35.25ZM30.375 23.1491L31.6009 24.375C31.7484 24.5225 31.9211 24.5982 32.1191 24.6022C32.317 24.6061 32.4936 24.5304 32.6491 24.375C32.7916 24.2323 32.866 24.0608 32.8725 23.8606C32.879 23.6602 32.8108 23.4823 32.6681 23.3269L31.4231 22.0625L32.6491 20.8366C32.7966 20.6891 32.8723 20.5164 32.8762 20.3184C32.8802 20.1205 32.8045 19.9439 32.6491 19.7884C32.4936 19.633 32.319 19.5553 32.125 19.5553C31.931 19.5553 31.7564 19.633 31.6009 19.7884L30.375 21.0144L29.1491 19.7884C29.0016 19.6409 28.8289 19.5652 28.6309 19.5613C28.433 19.5573 28.2564 19.633 28.1009 19.7884C27.9455 19.9439 27.8678 20.1185 27.8678 20.3125C27.8678 20.5065 27.9455 20.6811 28.1009 20.8366L29.3269 22.0625L28.0819 23.3269C27.9471 23.4744 27.8777 23.6471 27.8738 23.845C27.8698 24.0429 27.9455 24.2196 28.1009 24.375C28.2564 24.5304 28.431 24.6081 28.625 24.6081C28.819 24.6081 28.9936 24.5304 29.1491 24.375L30.375 23.1491Z" fill="#FDFDCB"/>
</g>
</svg>
