<svg width="51" height="52" viewBox="0 0 51 52" fill="none" xmlns="http://www.w3.org/2000/svg">
<rect y="0.5" width="51" height="51" rx="25.5" fill="#1F6B57"/>
<mask id="mask0_2068_2432" style="mask-type:alpha" maskUnits="userSpaceOnUse" x="11" y="11" width="30" height="31">
<rect x="11" y="11.5" width="30" height="30" fill="#D9D9D9"/>
</mask>
<g mask="url(#mask0_2068_2432)">
<path d="M26.0022 38.375C24.3597 38.375 22.8158 38.0633 21.3706 37.44C19.9254 36.8167 18.6683 35.9707 17.5994 34.9022C16.5304 33.8336 15.6841 32.5771 15.0603 31.1325C14.4368 29.6879 14.125 28.1445 14.125 26.5022C14.125 24.8597 14.4368 23.3158 15.0603 21.8706C15.6836 20.4254 16.5297 19.1683 17.5984 18.0994C18.6672 17.0304 19.924 16.1841 21.3687 15.5603C22.8135 14.9368 24.3573 14.625 26 14.625C27.04 14.625 28.048 14.7576 29.0241 15.0228C30.0001 15.288 30.9336 15.6715 31.8247 16.1731C32.0649 16.3077 32.2219 16.5017 32.2956 16.755C32.3694 17.0081 32.3261 17.2445 32.1659 17.4641C32.0057 17.6836 31.7938 17.821 31.53 17.8762C31.2665 17.9315 31.0121 17.8918 30.7669 17.7572C30.036 17.3486 29.2672 17.037 28.4603 16.8222C27.6534 16.6074 26.8333 16.5 26 16.5C23.2292 16.5 20.8698 17.474 18.9219 19.4219C16.974 21.3698 16 23.7292 16 26.5C16 29.2708 16.974 31.6302 18.9219 33.5781C20.8698 35.526 23.2292 36.5 26 36.5C28.7708 36.5 31.1302 35.526 33.0781 33.5781C35.026 31.6302 36 29.2708 36 26.5C36 26.2581 35.9908 26.0238 35.9725 25.7969C35.954 25.57 35.9223 25.3372 35.8775 25.0984C35.8358 24.8324 35.8815 24.578 36.0144 24.3353C36.1475 24.0926 36.3477 23.9352 36.615 23.8631C36.8669 23.7908 37.1005 23.8221 37.3159 23.9569C37.5316 24.0915 37.6602 24.2853 37.7019 24.5384C37.7596 24.8541 37.8028 25.1734 37.8316 25.4966C37.8605 25.8195 37.875 26.154 37.875 26.5C37.875 28.1427 37.5633 29.6865 36.94 31.1313C36.3167 32.576 35.4707 33.8328 34.4022 34.9016C33.3336 35.9703 32.0771 36.8164 30.6325 37.4397C29.1879 38.0632 27.6445 38.375 26.0022 38.375ZM24.2259 29.1828L35.8991 17.4903C36.0722 17.3174 36.2866 17.2257 36.5422 17.2153C36.7976 17.2049 37.0232 17.2975 37.2191 17.4931C37.3982 17.6725 37.4878 17.8911 37.4878 18.1491C37.4878 18.407 37.3973 18.6266 37.2162 18.8078L25.0169 31.0266C24.7908 31.2524 24.5272 31.3653 24.2259 31.3653C23.9247 31.3653 23.661 31.2524 23.435 31.0266L20.0047 27.5962C19.8318 27.4231 19.7432 27.2055 19.7391 26.9434C19.7351 26.6816 19.8236 26.46 20.0047 26.2788C20.1859 26.0977 20.4055 26.0072 20.6634 26.0072C20.9214 26.0072 21.1409 26.0977 21.3222 26.2788L24.2259 29.1828Z" fill="white"/>
</g>
</svg>
