<svg width="20" height="20" viewBox="0 0 20 20" fill="none" xmlns="http://www.w3.org/2000/svg">
<mask id="mask0_2068_2395" style="mask-type:alpha" maskUnits="userSpaceOnUse" x="0" y="0" width="20" height="20">
<rect width="20" height="20" fill="#D9D9D9"/>
</mask>
<g mask="url(#mask0_2068_2395)">
<path d="M6.66667 9.79163V6.24996C6.66667 5.90274 6.78819 5.6076 7.03125 5.36454C7.27431 5.12149 7.56944 4.99996 7.91667 4.99996C8.26389 4.99996 8.55903 5.12149 8.80208 5.36454C9.04514 5.6076 9.16667 5.90274 9.16667 6.24996V9.79163C9.16667 10.1388 9.04514 10.434 8.80208 10.677C8.55903 10.9201 8.26389 11.0416 7.91667 11.0416C7.56944 11.0416 7.27431 10.9201 7.03125 10.677C6.78819 10.434 6.66667 10.1388 6.66667 9.79163ZM10.8333 9.60413V2.91663C10.8333 2.5694 10.9549 2.27426 11.1979 2.03121C11.441 1.78815 11.7361 1.66663 12.0833 1.66663C12.4306 1.66663 12.7257 1.78815 12.9688 2.03121C13.2118 2.27426 13.3333 2.5694 13.3333 2.91663V9.60413C13.3333 10.0208 13.2049 10.3333 12.9479 10.5416C12.691 10.75 12.4028 10.8541 12.0833 10.8541C11.7639 10.8541 11.4757 10.75 11.2188 10.5416C10.9618 10.3333 10.8333 10.0208 10.8333 9.60413ZM2.5 12.4791V9.58329C2.5 9.23607 2.62153 8.94093 2.86458 8.69788C3.10764 8.45482 3.40278 8.33329 3.75 8.33329C4.09722 8.33329 4.39236 8.45482 4.63542 8.69788C4.87847 8.94093 5 9.23607 5 9.58329V12.4791C5 12.8958 4.87153 13.2083 4.61458 13.4166C4.35764 13.625 4.06944 13.7291 3.75 13.7291C3.43056 13.7291 3.14236 13.625 2.88542 13.4166C2.62847 13.2083 2.5 12.8958 2.5 12.4791ZM4.5 17.5416C4.13889 17.5416 3.88542 17.3715 3.73958 17.0312C3.59375 16.6909 3.65278 16.3889 3.91667 16.125L7.33333 12.7083C7.48611 12.5555 7.67014 12.4722 7.88542 12.4583C8.10069 12.4444 8.29167 12.5138 8.45833 12.6666L10.8333 14.7083L15.5 10.0416H15C14.7639 10.0416 14.566 9.96177 14.4062 9.80204C14.2465 9.64232 14.1667 9.4444 14.1667 9.20829C14.1667 8.97218 14.2465 8.77427 14.4062 8.61454C14.566 8.45482 14.7639 8.37496 15 8.37496H17.5C17.7361 8.37496 17.934 8.45482 18.0937 8.61454C18.2535 8.77427 18.3333 8.97218 18.3333 9.20829V11.7083C18.3333 11.9444 18.2535 12.1423 18.0937 12.302C17.934 12.4618 17.7361 12.5416 17.5 12.5416C17.2639 12.5416 17.066 12.4618 16.9062 12.302C16.7465 12.1423 16.6667 11.9444 16.6667 11.7083V11.2083L11.4583 16.4166C11.3056 16.5694 11.1215 16.6527 10.9062 16.6666C10.691 16.6805 10.5 16.6111 10.3333 16.4583L7.95833 14.4166L5.08333 17.2916C5.01389 17.3611 4.92708 17.4201 4.82292 17.4687C4.71875 17.5173 4.61111 17.5416 4.5 17.5416Z" fill="#1C1B1F"/>
</g>
</svg>
