<svg width="20" height="20" viewBox="0 0 20 20" fill="none" xmlns="http://www.w3.org/2000/svg">
<mask id="mask0_2068_2443" style="mask-type:alpha" maskUnits="userSpaceOnUse" x="0" y="0" width="20" height="20">
<rect width="20" height="20" fill="#D9D9D9"/>
</mask>
<g mask="url(#mask0_2068_2443)">
<path d="M17.4993 6.66665C17.9438 6.66665 18.3327 6.83331 18.666 7.16665C18.9993 7.49998 19.166 7.88887 19.166 8.33331V9.99998C19.166 10.0972 19.1521 10.2014 19.1243 10.3125C19.0966 10.4236 19.0688 10.5278 19.041 10.625L16.541 16.5C16.416 16.7778 16.2077 17.0139 15.916 17.2083C15.6243 17.4028 15.3188 17.5 14.9993 17.5H5.83268V6.66665L10.8327 1.70831C11.041 1.49998 11.2875 1.37845 11.5723 1.34373C11.857 1.30901 12.1313 1.36109 12.3952 1.49998C12.6591 1.63887 12.8535 1.83331 12.9785 2.08331C13.1035 2.33331 13.1313 2.59026 13.0618 2.85415L12.1243 6.66665H17.4993ZM7.49935 7.37498V15.8333H14.9993L17.4993 9.99998V8.33331H9.99935L11.1243 3.74998L7.49935 7.37498ZM3.33268 17.5C2.87435 17.5 2.48199 17.3368 2.1556 17.0104C1.82921 16.684 1.66602 16.2916 1.66602 15.8333V8.33331C1.66602 7.87498 1.82921 7.48262 2.1556 7.15623C2.48199 6.82984 2.87435 6.66665 3.33268 6.66665H5.83268V8.33331H3.33268V15.8333H5.83268V17.5H3.33268Z" fill="#60BEA5"/>
</g>
</svg>
