<svg width="24" height="24" viewBox="0 0 24 24" fill="none" xmlns="http://www.w3.org/2000/svg">
<mask id="mask0_2068_1624" style="mask-type:alpha" maskUnits="userSpaceOnUse" x="0" y="0" width="24" height="24">
<rect width="24" height="24" fill="#D9D9D9"/>
</mask>
<g mask="url(#mask0_2068_1624)">
<path d="M5.1155 20C4.65517 20 4.27083 19.8458 3.9625 19.5375C3.65417 19.2292 3.5 18.8448 3.5 18.3845V5.6155C3.5 5.15517 3.65417 4.77083 3.9625 4.4625C4.27083 4.15417 4.65517 4 5.1155 4H13.923C14.0647 4 14.1834 4.048 14.2793 4.144C14.3751 4.24 14.423 4.35892 14.423 4.50075C14.423 4.64258 14.3751 4.76125 14.2793 4.85675C14.1834 4.95225 14.0647 5 13.923 5H5.1155C4.936 5 4.7885 5.05767 4.673 5.173C4.55767 5.2885 4.5 5.436 4.5 5.6155V18.3845C4.5 18.564 4.55767 18.7115 4.673 18.827C4.7885 18.9423 4.936 19 5.1155 19H17.8845C18.064 19 18.2115 18.9423 18.327 18.827C18.4423 18.7115 18.5 18.564 18.5 18.3845V9.577C18.5 9.43533 18.548 9.31658 18.644 9.22075C18.74 9.12492 18.8589 9.077 19.0008 9.077C19.1426 9.077 19.2613 9.12492 19.3568 9.22075C19.4523 9.31658 19.5 9.43533 19.5 9.577V18.3845C19.5 18.8448 19.3458 19.2292 19.0375 19.5375C18.7292 19.8458 18.3448 20 17.8845 20H5.1155ZM7.73 10.5C7.58817 10.5 7.4695 10.5479 7.374 10.6438C7.2785 10.7396 7.23075 10.8583 7.23075 11V16C7.23075 16.1417 7.27875 16.2604 7.37475 16.3562C7.47075 16.4521 7.58967 16.5 7.7315 16.5C7.87333 16.5 7.992 16.4521 8.0875 16.3562C8.183 16.2604 8.23075 16.1417 8.23075 16V11C8.23075 10.8583 8.18275 10.7396 8.08675 10.6438C7.99092 10.5479 7.872 10.5 7.73 10.5ZM11.4992 7.5C11.3574 7.5 11.2388 7.54792 11.1433 7.64375C11.0478 7.73958 11 7.85833 11 8V16C11 16.1417 11.048 16.2604 11.144 16.3562C11.24 16.4521 11.3589 16.5 11.5008 16.5C11.6426 16.5 11.7612 16.4521 11.8567 16.3562C11.9522 16.2604 12 16.1417 12 16V8C12 7.85833 11.952 7.73958 11.856 7.64375C11.76 7.54792 11.6411 7.5 11.4992 7.5ZM15.2685 13.5C15.1267 13.5 15.008 13.5479 14.9125 13.6438C14.817 13.7396 14.7693 13.8583 14.7693 14V16C14.7693 16.1417 14.8173 16.2604 14.9133 16.3562C15.0091 16.4521 15.128 16.5 15.27 16.5C15.4118 16.5 15.5305 16.4521 15.626 16.3562C15.7215 16.2604 15.7693 16.1417 15.7693 16V14C15.7693 13.8583 15.7213 13.7396 15.6253 13.6438C15.5293 13.5479 15.4103 13.5 15.2685 13.5ZM17.5 6H16C15.8583 6 15.7396 5.952 15.6438 5.856C15.5479 5.76 15.5 5.64108 15.5 5.49925C15.5 5.35742 15.5479 5.23875 15.6438 5.14325C15.7396 5.04775 15.8583 5 16 5H17.5V3.5C17.5 3.35833 17.548 3.23958 17.644 3.14375C17.74 3.04792 17.8589 3 18.0008 3C18.1426 3 18.2613 3.04792 18.3568 3.14375C18.4523 3.23958 18.5 3.35833 18.5 3.5V5H20C20.1417 5 20.2604 5.048 20.3563 5.144C20.4521 5.24 20.5 5.35892 20.5 5.50075C20.5 5.64258 20.4521 5.76125 20.3563 5.85675C20.2604 5.95225 20.1417 6 20 6H18.5V7.5C18.5 7.64167 18.452 7.76042 18.356 7.85625C18.26 7.95208 18.1411 8 17.9992 8C17.8574 8 17.7387 7.95208 17.6432 7.85625C17.5477 7.76042 17.5 7.64167 17.5 7.5V6Z" fill="white"/>
</g>
</svg>
