<svg width="24" height="24" viewBox="0 0 24 24" fill="none" xmlns="http://www.w3.org/2000/svg">
<mask id="mask0_2068_1629" style="mask-type:alpha" maskUnits="userSpaceOnUse" x="0" y="0" width="24" height="24">
<rect width="24" height="24" fill="#D9D9D9"/>
</mask>
<g mask="url(#mask0_2068_1629)">
<path d="M6.3655 17.1923C5.7565 17.1923 5.23883 16.9792 4.8125 16.553C4.38617 16.1267 4.173 15.609 4.173 15H3.8655C3.42117 15 3.04083 14.8418 2.7245 14.5255C2.40817 14.2092 2.25 13.8288 2.25 13.3845V7.62325C2.25 7.17058 2.40817 6.78683 2.7245 6.472C3.04083 6.15733 3.42117 6 3.8655 6H15.6943C15.9023 6 16.1006 6.03833 16.2893 6.115C16.4778 6.1915 16.6435 6.3 16.7865 6.4405L21.252 10.6365C21.4097 10.7813 21.5321 10.956 21.6193 11.1605C21.7064 11.365 21.75 11.5801 21.75 11.8058V13.3845C21.75 13.8288 21.5918 14.2092 21.2755 14.5255C20.9592 14.8418 20.5788 15 20.1345 15C20.1345 15.609 19.9214 16.1267 19.4953 16.553C19.0689 16.9792 18.5513 17.1923 17.9423 17.1923C17.3333 17.1923 16.8157 16.9792 16.3895 16.553C15.9632 16.1267 15.75 15.609 15.75 15H8.55775C8.55775 15.6025 8.34458 16.1185 7.91825 16.548C7.49192 16.9775 6.97433 17.1923 6.3655 17.1923ZM14.25 10.577H19.7115L16.077 7.173C16.0128 7.12183 15.9455 7.08017 15.875 7.048C15.8045 7.016 15.7308 7 15.6538 7H14.25V10.577ZM8.75 10.577H13.25V7H8.75V10.577ZM3.25 10.577H7.75V7H3.8655C3.686 7 3.5385 7.05767 3.423 7.173C3.30767 7.2885 3.25 7.436 3.25 7.6155V10.577ZM6.3655 16.25C6.7155 16.25 7.01133 16.1292 7.253 15.8875C7.49467 15.6458 7.6155 15.35 7.6155 15C7.6155 14.65 7.49467 14.3542 7.253 14.1125C7.01133 13.8708 6.7155 13.75 6.3655 13.75C6.0155 13.75 5.71967 13.8708 5.478 14.1125C5.23633 14.3542 5.1155 14.65 5.1155 15C5.1155 15.35 5.23633 15.6458 5.478 15.8875C5.71967 16.1292 6.0155 16.25 6.3655 16.25ZM17.9423 16.25C18.2922 16.25 18.5881 16.1292 18.8298 15.8875C19.0714 15.6458 19.1923 15.35 19.1923 15C19.1923 14.65 19.0714 14.3542 18.8298 14.1125C18.5881 13.8708 18.2922 13.75 17.9423 13.75C17.5922 13.75 17.2964 13.8708 17.0548 14.1125C16.8131 14.3542 16.6923 14.65 16.6923 15C16.6923 15.35 16.8131 15.6458 17.0548 15.8875C17.2964 16.1292 17.5922 16.25 17.9423 16.25ZM8.29625 14H16.0115C16.1538 13.7 16.3987 13.4262 16.7462 13.1788C17.0936 12.9314 17.4923 12.8078 17.9423 12.8078C18.3923 12.8078 18.7813 12.9218 19.1095 13.15C19.4378 13.3782 19.6923 13.6615 19.873 14H20.1345C20.314 14 20.4615 13.9423 20.577 13.827C20.6923 13.7115 20.75 13.564 20.75 13.3845V11.577H3.25V13.3845C3.25 13.564 3.30767 13.7115 3.423 13.827C3.5385 13.9423 3.686 14 3.8655 14H4.4345C4.57683 13.7 4.82175 13.4262 5.16925 13.1788C5.51675 12.9314 5.9155 12.8078 6.3655 12.8078C6.8155 12.8078 7.20458 12.9218 7.53275 13.15C7.86092 13.3782 8.11542 13.6615 8.29625 14Z" fill="white"/>
</g>
</svg>
