<svg width="30" height="30" viewBox="0 0 30 30" fill="none" xmlns="http://www.w3.org/2000/svg">
<mask id="mask0_2068_1540" style="mask-type:alpha" maskUnits="userSpaceOnUse" x="0" y="0" width="30" height="30">
<rect width="30" height="30" fill="#D9D9D9"/>
</mask>
<g mask="url(#mask0_2068_1540)">
<path d="M15 16.3172L18.8412 20.1587C19.0144 20.3317 19.232 20.4202 19.4941 20.4244C19.7559 20.4283 19.9775 20.3398 20.1588 20.1587C20.3398 19.9775 20.4303 19.7579 20.4303 19.5C20.4303 19.2421 20.3398 19.0225 20.1588 18.8413L16.3172 15L20.1588 11.1588C20.3317 10.9856 20.4202 10.768 20.4244 10.5059C20.4283 10.2441 20.3398 10.0225 20.1588 9.84125C19.9775 9.66021 19.7579 9.56969 19.5 9.56969C19.2421 9.56969 19.0225 9.66021 18.8412 9.84125L15 13.6828L11.1587 9.84125C10.9856 9.66833 10.768 9.57979 10.5059 9.57562C10.2441 9.57167 10.0225 9.66021 9.84125 9.84125C9.66021 10.0225 9.56969 10.2421 9.56969 10.5C9.56969 10.7579 9.66021 10.9775 9.84125 11.1588L13.6828 15L9.84125 18.8413C9.66833 19.0144 9.57979 19.232 9.57563 19.4941C9.57167 19.7559 9.66021 19.9775 9.84125 20.1587C10.0225 20.3398 10.2421 20.4303 10.5 20.4303C10.7579 20.4303 10.9775 20.3398 11.1587 20.1587L15 16.3172ZM15.0022 26.875C13.3597 26.875 11.8158 26.5633 10.3706 25.94C8.92542 25.3167 7.66833 24.4707 6.59937 23.4022C5.53042 22.3336 4.68406 21.0771 4.06031 19.6325C3.43677 18.1879 3.125 16.6445 3.125 15.0022C3.125 13.3597 3.43667 11.8158 4.06 10.3706C4.68333 8.92542 5.52927 7.66833 6.59781 6.59937C7.66635 5.53042 8.92292 4.68406 10.3675 4.06031C11.8121 3.43677 13.3555 3.125 14.9978 3.125C16.6403 3.125 18.1842 3.43667 19.6294 4.06C21.0746 4.68333 22.3317 5.52927 23.4006 6.59781C24.4696 7.66635 25.3159 8.92292 25.9397 10.3675C26.5632 11.8121 26.875 13.3555 26.875 14.9978C26.875 16.6403 26.5633 18.1842 25.94 19.6294C25.3167 21.0746 24.4707 22.3317 23.4022 23.4006C22.3336 24.4696 21.0771 25.3159 19.6325 25.9397C18.1879 26.5632 16.6445 26.875 15.0022 26.875ZM15 25C17.7917 25 20.1562 24.0312 22.0938 22.0938C24.0312 20.1562 25 17.7917 25 15C25 12.2083 24.0312 9.84375 22.0938 7.90625C20.1562 5.96875 17.7917 5 15 5C12.2083 5 9.84375 5.96875 7.90625 7.90625C5.96875 9.84375 5 12.2083 5 15C5 17.7917 5.96875 20.1562 7.90625 22.0938C9.84375 24.0312 12.2083 25 15 25Z" fill="white"/>
</g>
</svg>
