<svg width="48" height="48" viewBox="0 0 48 48" fill="none" xmlns="http://www.w3.org/2000/svg">
<rect width="48" height="48" rx="24" fill="#67292E"/>
<mask id="mask0_2068_1845" style="mask-type:alpha" maskUnits="userSpaceOnUse" x="11" y="11" width="30" height="30">
<rect x="11" y="11" width="30" height="30" fill="#D9D9D9"/>
</mask>
<g mask="url(#mask0_2068_1845)">
<path d="M23.6128 24.12C22.7395 24.12 22.0003 23.8176 21.3953 23.2128C20.7903 22.6078 20.4878 21.8686 20.4878 20.9953C20.4878 20.1218 20.7903 19.3826 21.3953 18.7778C22.0003 18.1728 22.7395 17.8703 23.6128 17.8703C24.4861 17.8703 25.2253 18.1728 25.8303 18.7778C26.4353 19.3826 26.7378 20.1218 26.7378 20.9953C26.7378 21.8686 26.4353 22.6078 25.8303 23.2128C25.2253 23.8176 24.4861 24.12 23.6128 24.12ZM15.2594 27.9903C14.6381 27.9903 14.1063 27.7691 13.6638 27.3266C13.2213 26.8841 13 26.3521 13 25.7306V16.2597C13 15.6382 13.2213 15.1062 13.6638 14.6637C14.1063 14.2212 14.6381 14 15.2594 14H31.9781C32.5996 14 33.1316 14.2212 33.5741 14.6637C34.0166 15.1062 34.2378 15.6382 34.2378 16.2597V25.7306C34.2378 26.3521 34.0166 26.8841 33.5741 27.3266C33.1316 27.7691 32.5996 27.9903 31.9781 27.9903H15.2594ZM17.1344 26.1153H30.1031C30.1031 25.492 30.3244 24.9596 30.7669 24.5181C31.2094 24.0767 31.7414 23.8559 32.3628 23.8559V18.1347C31.7395 18.1347 31.2071 17.9134 30.7656 17.4709C30.324 17.0284 30.1031 16.4965 30.1031 15.875H17.1344C17.1344 16.4983 16.9131 17.0307 16.4706 17.4722C16.0281 17.9139 15.4961 18.1347 14.8747 18.1347V23.8559C15.4982 23.8559 16.0307 24.0772 16.4722 24.5197C16.9136 24.9622 17.1344 25.4941 17.1344 26.1153ZM22.6753 34.2019L21.0094 32.5359C20.8362 32.363 20.6207 32.2766 20.3628 32.2766C20.1049 32.2766 19.8894 32.363 19.7163 32.5359C19.5431 32.7091 19.4566 32.9273 19.4566 33.1906C19.4566 33.454 19.5431 33.6708 19.7163 33.8412L22.8297 36.955C22.9495 37.0748 23.0748 37.1586 23.2056 37.2066C23.3367 37.2547 23.477 37.2787 23.6266 37.2787C23.7761 37.2787 23.9158 37.2547 24.0456 37.2066C24.1754 37.1586 24.3002 37.0748 24.42 36.955L27.5334 33.8412C27.7066 33.6708 27.7931 33.454 27.7931 33.1906C27.7931 32.9273 27.7066 32.7091 27.5334 32.5359C27.3603 32.363 27.1421 32.2766 26.8787 32.2766C26.6154 32.2766 26.3985 32.363 26.2281 32.5359L24.5622 34.2019V30.6587C24.5622 30.3931 24.4724 30.1704 24.2928 29.9906C24.113 29.811 23.8902 29.7212 23.6244 29.7212C23.3587 29.7212 23.1342 29.811 22.9506 29.9906C22.7671 30.1704 22.6753 30.3931 22.6753 30.6587V34.2019Z" fill="white"/>
</g>
</svg>
