<svg width="48" height="48" viewBox="0 0 48 48" fill="none" xmlns="http://www.w3.org/2000/svg">
<rect width="48" height="48" rx="24" fill="#114537"/>
<mask id="mask0_2068_1836" style="mask-type:alpha" maskUnits="userSpaceOnUse" x="9" y="9" width="30" height="30">
<rect x="9" y="9" width="30" height="30" fill="#D9D9D9"/>
</mask>
<g mask="url(#mask0_2068_1836)">
<path d="M23.8384 33.8509C23.9617 33.8509 24.0871 33.822 24.2146 33.7643C24.3419 33.7066 24.4424 33.6409 24.5162 33.5671L34.5137 23.5696C34.7958 23.2875 35.0082 22.9862 35.1509 22.6656C35.2934 22.3451 35.3646 22.0087 35.3646 21.6562C35.3646 21.2908 35.2934 20.939 35.1509 20.6009C35.0082 20.2625 34.7958 19.9588 34.5137 19.6896L29.5137 14.6896C29.2445 14.4075 28.9528 14.2012 28.6387 14.0706C28.3247 13.9401 27.985 13.8749 27.6196 13.8749C27.2671 13.8749 26.9286 13.9401 26.604 14.0706C26.2794 14.2012 25.9801 14.4075 25.7062 14.6896L24.9896 15.4062L27.3021 17.7378C27.5825 18.0055 27.7897 18.3108 27.9237 18.6537C28.0574 18.9966 28.1243 19.3523 28.1243 19.7209C28.1243 20.4838 27.8695 21.12 27.3599 21.6296C26.8503 22.1392 26.2141 22.394 25.4512 22.394C25.0826 22.394 24.7257 22.3331 24.3802 22.2112C24.035 22.0895 23.7286 21.8948 23.4609 21.6271L21.3696 19.5553C21.2975 19.483 21.2053 19.4468 21.0931 19.4468C20.981 19.4468 20.8889 19.483 20.8168 19.5553L15.6605 24.7112C15.566 24.8058 15.495 24.9116 15.4477 25.0287C15.4004 25.1456 15.3768 25.2658 15.3768 25.3893C15.3768 25.6199 15.4553 25.817 15.6124 25.9806C15.7695 26.1441 15.9634 26.2259 16.194 26.2259C16.3175 26.2259 16.4429 26.197 16.5702 26.1393C16.6977 26.0816 16.7984 26.0159 16.8721 25.9421L20.319 22.4949C20.4921 22.3218 20.7065 22.23 20.9621 22.2196C21.2177 22.2092 21.4425 22.301 21.6365 22.4949C21.8175 22.676 21.908 22.8956 21.908 23.1537C21.908 23.4116 21.8175 23.6311 21.6365 23.8121L18.2084 27.2593C18.114 27.3539 18.0432 27.4597 17.9959 27.5768C17.9486 27.6937 17.9249 27.8139 17.9249 27.9374C17.9249 28.1601 18.0054 28.352 18.1665 28.5131C18.3275 28.6741 18.5194 28.7546 18.7421 28.7546C18.8657 28.7546 18.9911 28.7258 19.1184 28.6681C19.2459 28.6104 19.3464 28.5446 19.4199 28.4709L23.0115 24.8987C23.1846 24.7258 23.3989 24.6341 23.6543 24.6237C23.9099 24.6133 24.1347 24.7049 24.3287 24.8987C24.5097 25.0799 24.6002 25.2995 24.6002 25.5574C24.6002 25.8154 24.5097 26.0349 24.3287 26.2162L20.7565 29.8074C20.67 29.8812 20.6012 29.9817 20.5499 30.109C20.4987 30.2365 20.4731 30.3619 20.4731 30.4853C20.4731 30.7082 20.5536 30.9001 20.7146 31.0612C20.8757 31.2222 21.0675 31.3028 21.2902 31.3028C21.4136 31.3028 21.5338 31.2791 21.6509 31.2318C21.7677 31.1845 21.8735 31.1136 21.9681 31.019L25.5596 27.4468C25.7325 27.2737 25.9468 27.1819 26.2024 27.1715C26.4581 27.1611 26.6828 27.2529 26.8768 27.4468C27.0578 27.6279 27.1484 27.8474 27.1484 28.1056C27.1484 28.3635 27.0578 28.5831 26.8768 28.7643L23.2856 32.3556C23.191 32.4501 23.12 32.5599 23.0727 32.6849C23.0254 32.8099 23.0018 32.9301 23.0018 33.0456C23.0018 33.2762 23.0875 33.4681 23.259 33.6212C23.4304 33.7743 23.6236 33.8509 23.8384 33.8509ZM23.819 35.7256C23.1123 35.7256 22.4962 35.4805 21.9705 34.9903C21.4449 34.4998 21.1701 33.8892 21.1462 33.1584C20.4378 33.1103 19.8461 32.8587 19.3709 32.4037C18.8957 31.9485 18.638 31.3507 18.598 30.6103C17.8576 30.5623 17.2591 30.3036 16.8024 29.834C16.3455 29.3644 16.1011 28.7738 16.069 28.0621C15.3254 28.0142 14.7117 27.7446 14.2277 27.2534C13.7438 26.7621 13.5018 26.1408 13.5018 25.3893C13.5018 25.0208 13.5719 24.6597 13.7121 24.3062C13.8523 23.9529 14.0563 23.6424 14.324 23.3749L19.4921 18.2065C19.9232 17.7755 20.4536 17.5599 21.0834 17.5599C21.7134 17.5599 22.2439 17.7755 22.6749 18.2065L24.7543 20.2859C24.8278 20.3723 24.9243 20.4413 25.0437 20.4928C25.1633 20.544 25.2927 20.5696 25.4321 20.5696C25.6596 20.5696 25.8559 20.4943 26.0209 20.3437C26.1861 20.1931 26.2687 19.9959 26.2687 19.7521C26.2687 19.6128 26.243 19.4834 26.1918 19.364C26.1403 19.2446 26.0714 19.1481 25.9849 19.0743L21.6002 14.6896C21.3311 14.4075 21.0374 14.2012 20.7193 14.0706C20.4012 13.9401 20.0594 13.8749 19.694 13.8749C19.3415 13.8749 19.007 13.9401 18.6905 14.0706C18.3739 14.2012 18.0746 14.4075 17.7927 14.6896L13.6868 18.8146C13.323 19.1784 13.0787 19.6163 12.9537 20.1284C12.8287 20.6405 12.8415 21.1385 12.9921 21.6224C13.0467 21.8804 12.9998 22.1147 12.8515 22.3256C12.7034 22.5362 12.5002 22.6623 12.2421 22.704C11.9842 22.7457 11.7478 22.6957 11.533 22.554C11.3183 22.4121 11.19 22.2121 11.1484 21.954C10.9513 21.1544 10.9505 20.3584 11.1462 19.5659C11.3416 18.7734 11.7429 18.0735 12.3502 17.4662L16.444 13.3724C16.9121 12.9172 17.4214 12.5747 17.9718 12.3449C18.5222 12.1149 19.1003 11.9999 19.7062 11.9999C20.3118 11.9999 20.8878 12.1149 21.4343 12.3449C21.981 12.5747 22.4818 12.9172 22.9368 13.3724L23.6534 14.0887L24.3696 13.3724C24.8375 12.9172 25.3447 12.5747 25.8912 12.3449C26.4376 12.1149 27.0138 11.9999 27.6196 11.9999C28.2254 11.9999 28.8036 12.1149 29.354 12.3449C29.9044 12.5747 30.4072 12.9172 30.8624 13.3724L35.8312 18.3412C36.2862 18.7964 36.6347 19.3144 36.8768 19.8953C37.1187 20.4761 37.2396 21.0694 37.2396 21.6753C37.2396 22.2811 37.1187 22.8572 36.8768 23.4037C36.6347 23.9501 36.2862 24.4509 35.8312 24.9059L25.8334 34.8843C25.5577 35.1599 25.2473 35.3691 24.9021 35.5118C24.5567 35.6543 24.1957 35.7256 23.819 35.7256Z" fill="white"/>
</g>
</svg>
