<svg width="48" height="48" viewBox="0 0 48 48" fill="none" xmlns="http://www.w3.org/2000/svg">
<rect width="48" height="48" rx="24" fill="#114537"/>
<mask id="mask0_2068_1827" style="mask-type:alpha" maskUnits="userSpaceOnUse" x="9" y="9" width="30" height="30">
<rect x="9" y="9" width="30" height="30" fill="#D9D9D9"/>
</mask>
<g mask="url(#mask0_2068_1827)">
<path d="M23.875 14.8509L14.1153 18.7547C14.0432 18.7868 13.9852 18.8349 13.9412 18.8991C13.8971 18.9632 13.875 19.0353 13.875 19.1153V31.7787C13.875 31.8669 13.9171 31.953 14.0012 32.0372C14.0854 32.1214 14.1716 32.1634 14.2597 32.1634H17V24.4231C17 23.7996 17.2207 23.2671 17.6622 22.8256C18.1039 22.3842 18.6364 22.1634 19.2597 22.1634H28.4903C29.1136 22.1634 29.6461 22.3842 30.0878 22.8256C30.5293 23.2671 30.75 23.7996 30.75 24.4231V32.1634H33.4903C33.5784 32.1634 33.6646 32.1214 33.7488 32.0372C33.8329 31.953 33.875 31.8669 33.875 31.7787V19.1153C33.875 19.0353 33.8529 18.9632 33.8088 18.8991C33.7648 18.8349 33.7068 18.7868 33.6347 18.7547L23.875 14.8509ZM12 31.7787V19.1153C12 18.6426 12.1286 18.2179 12.3859 17.8412C12.643 17.4648 12.9872 17.1908 13.4184 17.0194L23.0337 13.1756C23.3012 13.0585 23.5817 13 23.875 13C24.1683 13 24.4488 13.0585 24.7163 13.1756L34.3316 17.0194C34.7628 17.1908 35.107 17.4648 35.3641 17.8412C35.6214 18.2179 35.75 18.6426 35.75 19.1153V31.7787C35.75 32.4021 35.5293 32.9346 35.0878 33.3763C34.6461 33.8177 34.1136 34.0384 33.4903 34.0384H28.875V24.4231C28.875 24.3108 28.839 24.2186 28.7669 24.1466C28.6948 24.0745 28.6026 24.0384 28.4903 24.0384H19.2597C19.1474 24.0384 19.0552 24.0745 18.9831 24.1466C18.911 24.2186 18.875 24.3108 18.875 24.4231V34.0384H14.2597C13.6364 34.0384 13.1039 33.8177 12.6622 33.3763C12.2207 32.9346 12 32.4021 12 31.7787ZM20.4734 34.0384V31.8269H22.685V34.0384H20.4734ZM22.7694 30.2884V28.0769H24.9806V30.2884H22.7694ZM25.065 34.0384V31.8269H27.2766V34.0384H25.065Z" fill="white"/>
</g>
</svg>
