<svg width="48" height="48" viewBox="0 0 48 48" fill="none" xmlns="http://www.w3.org/2000/svg">
<rect width="48" height="48" rx="24" fill="#114537"/>
<mask id="mask0_2068_1818" style="mask-type:alpha" maskUnits="userSpaceOnUse" x="9" y="9" width="30" height="30">
<rect x="9" y="9" width="30" height="30" fill="#D9D9D9"/>
</mask>
<g mask="url(#mask0_2068_1818)">
<path d="M19.0262 32.6471C18.1277 32.6471 17.3637 32.3325 16.7341 31.7035C16.1043 31.0743 15.7894 30.3104 15.7894 29.4118H14.0859C13.8359 29.4118 13.6263 29.3272 13.4571 29.1579C13.288 28.9887 13.2035 28.7791 13.2035 28.5291C13.2035 28.2789 13.288 28.0694 13.4571 27.9006C13.6263 27.7316 13.8359 27.6471 14.0859 27.6471H16.3959C16.6688 27.199 17.0365 26.842 17.4988 26.5759C17.961 26.3096 18.4696 26.1765 19.0247 26.1765C19.5798 26.1765 20.0885 26.3096 20.5509 26.5759C21.013 26.842 21.3807 27.199 21.6538 27.6471H26.8256L29.3529 16.7647H17.5315C17.2815 16.7647 17.072 16.6801 16.9029 16.5109C16.7337 16.3417 16.6491 16.1321 16.6491 15.8821C16.6491 15.6319 16.7337 15.4224 16.9029 15.2535C17.072 15.0845 17.2815 15 17.5315 15H30.2238C30.5707 15 30.8505 15.1339 31.0632 15.4018C31.2758 15.6694 31.3406 15.9707 31.2577 16.3056L30.5382 19.4118H32.4182C32.7551 19.4118 33.0741 19.4871 33.3753 19.6376C33.6767 19.7884 33.9248 19.9967 34.1197 20.2624L36.2803 23.1291C36.4734 23.3809 36.5975 23.6497 36.6524 23.9356C36.7075 24.2213 36.7094 24.5158 36.6582 24.8191L35.9094 28.5612C35.858 28.8129 35.7337 29.0176 35.5365 29.1753C35.3392 29.3329 35.1151 29.4118 34.8641 29.4118H33.8888C33.8888 30.3092 33.5744 31.0727 32.9456 31.7024C32.3168 32.3322 31.5532 32.6471 30.655 32.6471C29.7568 32.6471 28.9927 32.3325 28.3629 31.7035C27.7333 31.0743 27.4185 30.3104 27.4185 29.4118H22.26C22.26 30.3092 21.9456 31.0727 21.3168 31.7024C20.6879 32.3322 19.9244 32.6471 19.0262 32.6471ZM29.2079 25.1471H34.7826L34.9456 24.3144L32.5994 21.1765H30.1332L29.2079 25.1471ZM26.9976 26.9547L27.1697 26.1871C27.2842 25.6753 27.4297 25.0488 27.6062 24.3076C27.6801 24 27.7483 23.7157 27.8109 23.4547C27.8734 23.1937 27.9243 22.9592 27.9635 22.7512L28.1356 21.9835C28.2503 21.4718 28.3959 20.8453 28.5724 20.1041C28.7486 19.3629 28.8941 18.7365 29.0088 18.2247L29.1809 17.4571L29.3529 16.7647L26.8256 27.6471L26.9976 26.9547ZM12.8709 25.19C12.624 25.19 12.4172 25.1054 12.2503 24.9362C12.0834 24.767 12 24.5574 12 24.3074C12 24.0572 12.0845 23.8476 12.2535 23.6788C12.4225 23.5098 12.6321 23.4253 12.8821 23.4253H16.9885C17.2385 23.4253 17.448 23.5099 17.6171 23.6791C17.7863 23.8483 17.8709 24.058 17.8709 24.3082C17.8709 24.5582 17.7863 24.7677 17.6171 24.9368C17.448 25.1056 17.2385 25.19 16.9885 25.19H12.8709ZM15.2238 20.9865C14.9738 20.9865 14.7643 20.9019 14.5953 20.7326C14.4261 20.5634 14.3415 20.3538 14.3415 20.1038C14.3415 19.8536 14.4261 19.644 14.5953 19.475C14.7643 19.3062 14.9738 19.2218 15.2238 19.2218H20.5179C20.7679 19.2218 20.9775 19.3064 21.1465 19.4756C21.3157 19.6448 21.4003 19.8544 21.4003 20.1044C21.4003 20.3546 21.3157 20.5641 21.1465 20.7329C20.9775 20.902 20.7679 20.9865 20.5179 20.9865H15.2238ZM19.0247 30.8824C19.4335 30.8824 19.7808 30.7394 20.0665 30.4535C20.3524 30.1678 20.4953 29.8206 20.4953 29.4118C20.4953 29.0029 20.3524 28.6557 20.0665 28.37C19.7808 28.0841 19.4335 27.9412 19.0247 27.9412C18.6159 27.9412 18.2686 28.0841 17.9829 28.37C17.6971 28.6557 17.5541 29.0029 17.5541 29.4118C17.5541 29.8206 17.6971 30.1678 17.9829 30.4535C18.2686 30.7394 18.6159 30.8824 19.0247 30.8824ZM30.6538 30.8824C31.0625 30.8824 31.4097 30.7394 31.6956 30.4535C31.9815 30.1678 32.1244 29.8206 32.1244 29.4118C32.1244 29.0029 31.9815 28.6557 31.6956 28.37C31.4097 28.0841 31.0625 27.9412 30.6538 27.9412C30.245 27.9412 29.8976 28.0841 29.6118 28.37C29.3259 28.6557 29.1829 29.0029 29.1829 29.4118C29.1829 29.8206 29.3259 30.1678 29.6118 30.4535C29.8976 30.7394 30.245 30.8824 30.6538 30.8824Z" fill="white"/>
</g>
</svg>
