<svg width="52" height="51" viewBox="0 0 52 51" fill="none" xmlns="http://www.w3.org/2000/svg">
<rect x="0.333008" width="51" height="51" rx="25.5" fill="#253553"/>
<mask id="mask0_2068_1598" style="mask-type:alpha" maskUnits="userSpaceOnUse" x="11" y="11" width="31" height="30">
<rect x="11.333" y="11" width="30" height="30" fill="#D9D9D9"/>
</mask>
<g mask="url(#mask0_2068_1598)">
<path d="M14.458 34.245V28.5047C14.458 28.1795 14.5663 27.9091 14.783 27.6934C14.9995 27.478 15.2678 27.3703 15.588 27.3703H23.8571C24.1771 27.3703 24.4454 27.4785 24.6621 27.695C24.8785 27.9115 24.9868 28.1798 24.9868 28.5V34.2403C24.9868 34.5657 24.8785 34.8361 24.6621 35.0516C24.4454 35.2672 24.1771 35.375 23.8571 35.375H15.588C15.2678 35.375 14.9995 35.2667 14.783 35.05C14.5663 34.8335 14.458 34.5652 14.458 34.245ZM14.458 23.5V17.7597C14.458 17.4343 14.5663 17.1639 14.783 16.9484C14.9995 16.7328 15.2678 16.625 15.588 16.625H23.8571C24.1771 16.625 24.4454 16.7333 24.6621 16.95C24.8785 17.1665 24.9868 17.4348 24.9868 17.755V23.4953C24.9868 23.8205 24.8785 24.0909 24.6621 24.3066C24.4454 24.522 24.1771 24.6297 23.8571 24.6297H15.588C15.2678 24.6297 14.9995 24.5215 14.783 24.305C14.5663 24.0885 14.458 23.8202 14.458 23.5ZM16.333 22.755H23.1118V18.5H16.333V22.755ZM33.1702 34.9037C33.0206 34.9037 32.8809 34.8797 32.7511 34.8316C32.6213 34.7836 32.498 34.7011 32.3811 34.5841L28.0133 30.2163C27.8402 30.0431 27.7525 29.8289 27.7502 29.5734C27.7477 29.3178 27.8401 29.0964 28.0274 28.9091C28.199 28.7374 28.4138 28.6516 28.6718 28.6516C28.9299 28.6516 29.1455 28.738 29.3186 28.9109L32.2346 31.7837V17.5625C32.2346 17.2969 32.3244 17.0743 32.5039 16.8947C32.6837 16.7149 32.9065 16.625 33.1724 16.625C33.438 16.625 33.6606 16.7149 33.8402 16.8947C34.0196 17.0743 34.1093 17.2969 34.1093 17.5625V31.7837L37.0252 28.9109C37.1962 28.7405 37.4101 28.6515 37.6668 28.6438C37.9234 28.636 38.1454 28.7251 38.3327 28.9109C38.5044 29.0814 38.5902 29.2982 38.5902 29.5616C38.5902 29.8249 38.5036 30.0431 38.3305 30.2163L33.9627 34.5841C33.8458 34.7011 33.7219 34.7836 33.5908 34.8316C33.46 34.8797 33.3198 34.9037 33.1702 34.9037Z" fill="#DEE9FF"/>
</g>
</svg>
