<svg width="52" height="51" viewBox="0 0 52 51" fill="none" xmlns="http://www.w3.org/2000/svg">
<rect x="0.666016" width="51" height="51" rx="25.5" fill="#484816"/>
<mask id="mask0_2068_1606" style="mask-type:alpha" maskUnits="userSpaceOnUse" x="11" y="11" width="31" height="30">
<rect x="11.666" y="11" width="30" height="30" fill="#D9D9D9"/>
</mask>
<g mask="url(#mask0_2068_1606)">
<path d="M22.916 36.9375C21.6212 36.9375 20.5162 36.48 19.601 35.565C18.686 34.6498 18.2285 33.5448 18.2285 32.25V21.815C17.4993 21.5442 16.9004 21.111 16.4316 20.5156C15.9629 19.9202 15.7285 19.2497 15.7285 18.5041C15.7285 17.548 16.0626 16.7354 16.7307 16.0662C17.3988 15.3971 18.2101 15.0625 19.1645 15.0625C20.119 15.0625 20.9308 15.3971 21.5998 16.0662C22.2689 16.7354 22.6035 17.548 22.6035 18.5041C22.6035 19.2497 22.3691 19.9202 21.9004 20.5156C21.4316 21.111 20.8327 21.5442 20.1035 21.815V32.25C20.1035 33.0235 20.3791 33.6856 20.9304 34.2362C21.4816 34.7871 22.1442 35.0625 22.9182 35.0625C23.6924 35.0625 24.3543 34.7871 24.9041 34.2362C25.4537 33.6856 25.7285 33.0235 25.7285 32.25V19.75C25.7285 18.4552 26.186 17.3502 27.101 16.435C28.0162 15.52 29.1212 15.0625 30.416 15.0625C31.7108 15.0625 32.8158 15.52 33.731 16.435C34.646 17.3502 35.1035 18.4552 35.1035 19.75V30.185C35.8327 30.4558 36.4316 30.889 36.9004 31.4844C37.3691 32.0798 37.6035 32.7503 37.6035 33.4959C37.6035 34.452 37.2695 35.2646 36.6013 35.9338C35.9332 36.6029 35.122 36.9375 34.1676 36.9375C33.213 36.9375 32.4012 36.6029 31.7323 35.9338C31.0631 35.2646 30.7285 34.452 30.7285 33.4959C30.7285 32.7503 30.9629 32.0746 31.4316 31.4688C31.9004 30.8629 32.4993 30.435 33.2285 30.185V19.75C33.2285 18.9765 32.9529 18.3144 32.4016 17.7638C31.8504 17.2129 31.1878 16.9375 30.4138 16.9375C29.6397 16.9375 28.9777 17.2129 28.4279 17.7638C27.8783 18.3144 27.6035 18.9765 27.6035 19.75V32.25C27.6035 33.5448 27.146 34.6498 26.231 35.565C25.3158 36.48 24.2108 36.9375 22.916 36.9375ZM19.166 20.0625C19.6004 20.0625 19.9693 19.9106 20.2729 19.6069C20.5766 19.3033 20.7285 18.9344 20.7285 18.5C20.7285 18.0656 20.5766 17.6967 20.2729 17.3931C19.9693 17.0894 19.6004 16.9375 19.166 16.9375C18.7316 16.9375 18.3627 17.0894 18.0591 17.3931C17.7554 17.6967 17.6035 18.0656 17.6035 18.5C17.6035 18.9344 17.7554 19.3033 18.0591 19.6069C18.3627 19.9106 18.7316 20.0625 19.166 20.0625ZM34.166 35.0625C34.6004 35.0625 34.9693 34.9106 35.2729 34.6069C35.5766 34.3033 35.7285 33.9344 35.7285 33.5C35.7285 33.0656 35.5766 32.6967 35.2729 32.3931C34.9693 32.0894 34.6004 31.9375 34.166 31.9375C33.7316 31.9375 33.3627 32.0894 33.0591 32.3931C32.7554 32.6967 32.6035 33.0656 32.6035 33.5C32.6035 33.9344 32.7554 34.3033 33.0591 34.6069C33.3627 34.9106 33.7316 35.0625 34.166 35.0625Z" fill="#FFF8E7"/>
</g>
</svg>
