<svg width="51" height="51" viewBox="0 0 51 51" fill="none" xmlns="http://www.w3.org/2000/svg">
<rect width="51" height="51" rx="25.5" fill="#67292E"/>
<mask id="mask0_2068_1590" style="mask-type:alpha" maskUnits="userSpaceOnUse" x="11" y="11" width="30" height="30">
<rect x="11" y="11" width="30" height="30" fill="#D9D9D9"/>
</mask>
<g mask="url(#mask0_2068_1590)">
<path d="M26 30.6875C27.4756 30.6875 28.73 30.1711 29.7631 29.1384C30.796 28.1057 31.3125 26.8518 31.3125 25.3765C31.3125 23.9011 30.796 22.6467 29.7631 21.6131C28.73 20.5794 27.4756 20.0625 26 20.0625V21.5528C27.0656 21.5528 27.9691 21.9245 28.7103 22.6678C29.4516 23.4109 29.8222 24.3133 29.8222 25.375C29.8222 26.4367 29.4505 27.339 28.7072 28.0822C27.9641 28.8255 27.0617 29.1972 26 29.1972C25.3273 29.1972 24.7003 29.0281 24.1191 28.69C23.538 28.3519 23.0689 27.8968 22.7116 27.3247L21.4472 28.0865C21.9391 28.8909 22.5836 29.5255 23.3809 29.9903C24.178 30.4551 25.051 30.6875 26 30.6875ZM21.4328 26.5215C21.6876 26.5215 21.9035 26.433 22.0806 26.2559C22.2577 26.0788 22.3462 25.8629 22.3462 25.6081C22.3462 25.3533 22.2577 25.1374 22.0806 24.9603C21.9035 24.7832 21.6855 24.6947 21.4266 24.6947C21.1678 24.6947 20.9519 24.7808 20.7788 24.9531C20.6058 25.1254 20.5194 25.3434 20.5194 25.6072C20.5194 25.8707 20.6056 26.0889 20.7781 26.2619C20.9506 26.435 21.1689 26.5215 21.4328 26.5215ZM22.0841 23.9087C22.3389 23.9087 22.5548 23.8222 22.7319 23.649C22.909 23.4759 22.9975 23.26 22.9975 23.0012C22.9975 22.7425 22.9113 22.5246 22.7388 22.3475C22.5663 22.1704 22.348 22.0819 22.0841 22.0819C21.8203 22.0819 21.6021 22.1704 21.4294 22.3475C21.2569 22.5246 21.1706 22.7425 21.1706 23.0012C21.1706 23.26 21.2592 23.4759 21.4362 23.649C21.6133 23.8222 21.8293 23.9087 22.0841 23.9087ZM23.8725 22.1659C24.1273 22.1659 24.3432 22.0774 24.5203 21.9003C24.6974 21.7232 24.7859 21.5073 24.7859 21.2525C24.7859 20.9977 24.6974 20.7818 24.5203 20.6047C24.3432 20.4276 24.1253 20.339 23.8666 20.339C23.6078 20.339 23.3919 20.4252 23.2188 20.5975C23.0456 20.7698 22.9591 20.9877 22.9591 21.2512C22.9591 21.5148 23.0453 21.7331 23.2178 21.9062C23.3905 22.0794 23.6088 22.1659 23.8725 22.1659ZM26 37.7137C25.8702 37.7137 25.7428 37.7033 25.6178 37.6825C25.4928 37.6616 25.3718 37.6304 25.2547 37.5887C22.6186 36.6512 20.5214 34.989 18.9628 32.6022C17.4043 30.2151 16.625 27.6394 16.625 24.875V19.2453C16.625 18.7705 16.7616 18.3431 17.0347 17.9631C17.3076 17.5833 17.6606 17.308 18.0938 17.1372L25.2091 14.4809C25.4768 14.3847 25.7404 14.3365 26 14.3365C26.2596 14.3365 26.5232 14.3847 26.7909 14.4809L33.9062 17.1372C34.3394 17.308 34.6924 17.5833 34.9653 17.9631C35.2384 18.3431 35.375 18.7705 35.375 19.2453V24.875C35.375 27.6394 34.5957 30.2151 33.0372 32.6022C31.4786 34.989 29.3814 36.6512 26.7453 37.5887C26.6282 37.6304 26.5072 37.6616 26.3822 37.6825C26.2572 37.7033 26.1298 37.7137 26 37.7137ZM26 35.875C28.1667 35.1875 29.9583 33.8125 31.375 31.75C32.7917 29.6875 33.5 27.3958 33.5 24.875V19.2331C33.5 19.1531 33.4779 19.081 33.4338 19.0169C33.3898 18.9527 33.3277 18.9046 33.2475 18.8725L26.1322 16.2162C26.0922 16.2002 26.0481 16.1922 26 16.1922C25.9519 16.1922 25.9078 16.2002 25.8678 16.2162L18.7525 18.8725C18.6723 18.9046 18.6102 18.9527 18.5662 19.0169C18.5221 19.081 18.5 19.1531 18.5 19.2331V24.875C18.5 27.3958 19.2083 29.6875 20.625 31.75C22.0417 33.8125 23.8333 35.1875 26 35.875Z" fill="#FFD8D8"/>
</g>
</svg>
