<svg width="41" height="40" viewBox="0 0 41 40" fill="none" xmlns="http://www.w3.org/2000/svg">
<mask id="mask0_2068_2607" style="mask-type:alpha" maskUnits="userSpaceOnUse" x="0" y="0" width="41" height="40">
<rect x="0.666016" width="40" height="40" fill="#D9D9D9"/>
</mask>
<g mask="url(#mask0_2068_2607)">
<path d="M11.4993 20.8334H24.8327V19.1667H11.4993V20.8334ZM11.4993 15.8334H24.8327V14.1667H11.4993V15.8334ZM8.35852 31.6667C7.59129 31.6667 6.95074 31.4098 6.43685 30.8959C5.92296 30.382 5.66602 29.7414 5.66602 28.9742V11.0259C5.66602 10.2587 5.92296 9.6181 6.43685 9.10421C6.95074 8.59032 7.59129 8.33337 8.35852 8.33337H32.9735C33.7407 8.33337 34.3813 8.59032 34.8952 9.10421C35.4091 9.6181 35.666 10.2587 35.666 11.0259V28.9742C35.666 29.7414 35.4091 30.382 34.8952 30.8959C34.3813 31.4098 33.7407 31.6667 32.9735 31.6667H8.35852ZM8.35852 30H32.9735C33.2302 30 33.4653 29.8932 33.6789 29.6796C33.8925 29.466 33.9993 29.2309 33.9993 28.9742V11.0259C33.9993 10.7692 33.8925 10.5341 33.6789 10.3205C33.4653 10.1068 33.2302 10 32.9735 10H8.35852C8.10185 10 7.86671 10.1068 7.6531 10.3205C7.43949 10.5341 7.33268 10.7692 7.33268 11.0259V28.9742C7.33268 29.2309 7.43949 29.466 7.6531 29.6796C7.86671 29.8932 8.10185 30 8.35852 30Z" fill="white"/>
</g>
</svg>
