<svg width="17" height="16" viewBox="0 0 17 16" fill="none" xmlns="http://www.w3.org/2000/svg">
<g clip-path="url(#clip0_2068_2614)">
<path d="M14.666 8C14.666 7.21207 14.5108 6.43185 14.2093 5.7039C13.9078 4.97595 13.4658 4.31451 12.9087 3.75736C12.3515 3.20021 11.6901 2.75825 10.9621 2.45672C10.2342 2.15519 9.45395 2 8.66602 2C7.87808 2 7.09787 2.15519 6.36992 2.45672C5.64196 2.75825 4.98053 3.20021 4.42337 3.75736C3.86622 4.31451 3.42427 4.97595 3.12274 5.7039C2.82121 6.43185 2.66602 7.21207 2.66602 8C2.66602 8.78793 2.82121 9.56815 3.12274 10.2961C3.42427 11.0241 3.86622 11.6855 4.42337 12.2426C4.98053 12.7998 5.64196 13.2417 6.36992 13.5433C7.09787 13.8448 7.87808 14 8.66602 14C9.45395 14 10.2342 13.8448 10.9621 13.5433C11.6901 13.2417 12.3515 12.7998 12.9087 12.2426C13.4658 11.6855 13.9078 11.0241 14.2093 10.2961C14.5108 9.56815 14.666 8.78793 14.666 8ZM0.666016 8C0.666016 5.87827 1.50887 3.84344 3.00916 2.34315C4.50945 0.842855 6.54428 0 8.66602 0C10.7877 0 12.8226 0.842855 14.3229 2.34315C15.8232 3.84344 16.666 5.87827 16.666 8C16.666 10.1217 15.8232 12.1566 14.3229 13.6569C12.8226 15.1571 10.7877 16 8.66602 16C6.54428 16 4.50945 15.1571 3.00916 13.6569C1.50887 12.1566 0.666016 10.1217 0.666016 8ZM8.66602 10.5C9.32906 10.5 9.96494 10.2366 10.4338 9.76777C10.9026 9.29893 11.166 8.66304 11.166 8C11.166 7.33696 10.9026 6.70107 10.4338 6.23223C9.96494 5.76339 9.32906 5.5 8.66602 5.5C8.00297 5.5 7.36709 5.76339 6.89825 6.23223C6.42941 6.70107 6.16602 7.33696 6.16602 8C6.16602 8.66304 6.42941 9.29893 6.89825 9.76777C7.36709 10.2366 8.00297 10.5 8.66602 10.5ZM8.66602 3.5C9.85949 3.5 11.0041 3.97411 11.848 4.81802C12.6919 5.66193 13.166 6.80653 13.166 8C13.166 9.19347 12.6919 10.3381 11.848 11.182C11.0041 12.0259 9.85949 12.5 8.66602 12.5C7.47254 12.5 6.32795 12.0259 5.48404 11.182C4.64012 10.3381 4.16602 9.19347 4.16602 8C4.16602 6.80653 4.64012 5.66193 5.48404 4.81802C6.32795 3.97411 7.47254 3.5 8.66602 3.5ZM7.66602 8C7.66602 7.73478 7.77137 7.48043 7.95891 7.29289C8.14645 7.10536 8.4008 7 8.66602 7C8.93123 7 9.18559 7.10536 9.37312 7.29289C9.56066 7.48043 9.66602 7.73478 9.66602 8C9.66602 8.26522 9.56066 8.51957 9.37312 8.70711C9.18559 8.89464 8.93123 9 8.66602 9C8.4008 9 8.14645 8.89464 7.95891 8.70711C7.77137 8.51957 7.66602 8.26522 7.66602 8Z" fill="#3B82F6"/>
</g>
<defs>
<clipPath id="clip0_2068_2614">
<path d="M0.666016 0H16.666V16H0.666016V0Z" fill="white"/>
</clipPath>
</defs>
</svg>
