<svg width="40" height="40" viewBox="0 0 40 40" fill="none" xmlns="http://www.w3.org/2000/svg">
<mask id="mask0_2068_2579" style="mask-type:alpha" maskUnits="userSpaceOnUse" x="0" y="0" width="40" height="40">
<rect width="40" height="40" fill="#D9D9D9"/>
</mask>
<g mask="url(#mask0_2068_2579)">
<path d="M12.2487 34.9679C11.1554 34.9679 10.224 34.5878 9.45453 33.8275C8.68536 33.0672 8.30078 32.1439 8.30078 31.0575C8.30078 30.1239 8.59731 29.296 9.19036 28.5738C9.78314 27.8515 10.523 27.3985 11.4099 27.2146V12.7854C10.523 12.6015 9.78314 12.1485 9.19036 11.4262C8.59731 10.704 8.30078 9.87611 8.30078 8.9425C8.30078 7.84722 8.68356 6.91639 9.44911 6.15C10.2144 5.38333 11.1438 5 12.2374 5C13.3311 5 14.2624 5.38333 15.0316 6.15C15.8008 6.91639 16.1854 7.84722 16.1854 8.9425C16.1854 9.87611 15.8943 10.704 15.312 11.4262C14.7298 12.1485 13.9847 12.6015 13.0766 12.7854V13.6858C13.0766 15.2083 13.6001 16.5024 14.647 17.5679C15.694 18.6337 16.9654 19.1667 18.4612 19.1667H21.5379C23.4798 19.1667 25.1352 19.8604 26.5041 21.2479C27.8727 22.6354 28.557 24.3135 28.557 26.2821V27.2146C29.4654 27.3985 30.2159 27.8461 30.8087 28.5575C31.4018 29.2692 31.6983 30.0919 31.6983 31.0258C31.6983 32.1208 31.3083 33.0515 30.5283 33.8179C29.7486 34.5846 28.8151 34.9679 27.7279 34.9679C26.6404 34.9679 25.7162 34.5846 24.9554 33.8179C24.1943 33.0515 23.8137 32.1208 23.8137 31.0258C23.8137 30.0919 24.1048 29.2692 24.687 28.5575C25.2693 27.8461 26.0037 27.3985 26.8904 27.2146V26.2821C26.8904 24.7862 26.3701 23.5042 25.3295 22.4358C24.2887 21.3675 23.0248 20.8333 21.5379 20.8333H18.4612C17.3456 20.8333 16.3269 20.5914 15.4049 20.1075C14.483 19.6233 13.7069 18.9785 13.0766 18.1729V27.2146C13.9847 27.3985 14.7298 27.8461 15.312 28.5575C15.8943 29.2692 16.1854 30.0919 16.1854 31.0258C16.1854 32.1208 15.8026 33.0515 15.037 33.8179C14.2718 34.5846 13.3423 34.9679 12.2487 34.9679ZM12.2591 33.3333C12.8916 33.3333 13.4263 33.1154 13.8633 32.6796C14.3002 32.2437 14.5187 31.7037 14.5187 31.0596C14.5187 30.4151 14.3006 29.8744 13.8645 29.4375C13.4284 29.0006 12.888 28.7821 12.2433 28.7821C11.6213 28.7821 11.0866 29.0058 10.6391 29.4533C10.1913 29.9011 9.96745 30.4358 9.96745 31.0575C9.96745 31.6794 10.1913 32.2142 10.6391 32.6617C11.0866 33.1094 11.6266 33.3333 12.2591 33.3333ZM27.7399 33.3333C28.3724 33.3333 28.9072 33.1154 29.3441 32.6796C29.7811 32.2437 29.9995 31.7037 29.9995 31.0596C29.9995 30.4151 29.7815 29.8744 29.3454 29.4375C28.9093 29.0006 28.3687 28.7821 27.7237 28.7821C27.102 28.7821 26.5673 29.0058 26.1195 29.4533C25.672 29.9011 25.4483 30.4358 25.4483 31.0575C25.4483 31.6794 25.672 32.2142 26.1195 32.6617C26.5673 33.1094 27.1074 33.3333 27.7399 33.3333ZM12.2591 11.2179C12.8916 11.2179 13.4263 11 13.8633 10.5642C14.3002 10.1283 14.5187 9.58833 14.5187 8.94417C14.5187 8.29972 14.3006 7.75903 13.8645 7.32208C13.4284 6.88514 12.888 6.66667 12.2433 6.66667C11.6213 6.66667 11.0866 6.89056 10.6391 7.33833C10.1913 7.78583 9.96745 8.32056 9.96745 8.9425C9.96745 9.56417 10.1913 10.0989 10.6391 10.5467C11.0866 10.9942 11.6266 11.2179 12.2591 11.2179Z" fill="white"/>
</g>
</svg>
