<svg width="24" height="24" viewBox="0 0 24 24" fill="none" xmlns="http://www.w3.org/2000/svg">
<mask id="mask0_2068_1619" style="mask-type:alpha" maskUnits="userSpaceOnUse" x="0" y="0" width="24" height="24">
<rect width="24" height="24" fill="#D9D9D9"/>
</mask>
<g mask="url(#mask0_2068_1619)">
<path d="M7.21879 19.3847C6.82962 19.3847 6.48404 19.2572 6.18204 19.0022C5.88004 18.7474 5.69546 18.4255 5.62829 18.0365L4.34154 10.3345C4.29937 10.082 4.35662 9.86057 4.51329 9.67023C4.66979 9.47973 4.87737 9.38448 5.13604 9.38448H18.863C19.1217 9.38448 19.3293 9.47973 19.4858 9.67023C19.6425 9.86057 19.6997 10.082 19.6575 10.3345L18.3708 18.0365C18.3036 18.4255 18.119 18.7474 17.817 19.0022C17.515 19.2572 17.1695 19.3847 16.7803 19.3847H7.21879ZM5.39954 10.3845L6.59754 17.8655C6.62321 18.0193 6.69054 18.1443 6.79954 18.2405C6.90854 18.3365 7.03995 18.3845 7.19379 18.3845H16.8053C16.9591 18.3845 17.0905 18.3365 17.1995 18.2405C17.3085 18.1443 17.3759 18.0193 17.4015 17.8655L18.5995 10.3845H5.39954ZM9.99954 13.8845H13.9995C14.1412 13.8845 14.26 13.8366 14.3558 13.7407C14.4516 13.6447 14.4995 13.5258 14.4995 13.384C14.4995 13.2422 14.4516 13.1235 14.3558 13.028C14.26 12.9323 14.1412 12.8845 13.9995 12.8845H9.99954C9.85787 12.8845 9.73912 12.9325 9.64329 13.0285C9.54746 13.1245 9.49954 13.2434 9.49954 13.3852C9.49954 13.5271 9.54746 13.6457 9.64329 13.7412C9.73912 13.8367 9.85787 13.8845 9.99954 13.8845ZM5.99954 7.99998C5.85787 7.99998 5.73912 7.95198 5.64329 7.85598C5.54746 7.75998 5.49954 7.64107 5.49954 7.49923C5.49954 7.3574 5.54746 7.23873 5.64329 7.14323C5.73912 7.04773 5.85787 6.99998 5.99954 6.99998H17.9995C18.1412 6.99998 18.26 7.04799 18.3558 7.14399C18.4516 7.23998 18.4995 7.3589 18.4995 7.50074C18.4995 7.64257 18.4516 7.76124 18.3558 7.85674C18.26 7.95224 18.1412 7.99998 17.9995 7.99998H5.99954ZM7.99954 5.61548C7.85787 5.61548 7.73912 5.56748 7.64329 5.47148C7.54746 5.37548 7.49954 5.25657 7.49954 5.11474C7.49954 4.9729 7.54746 4.85423 7.64329 4.75873C7.73912 4.66307 7.85787 4.61523 7.99954 4.61523H15.9995C16.1412 4.61523 16.26 4.66323 16.3558 4.75923C16.4516 4.85523 16.4995 4.97415 16.4995 5.11599C16.4995 5.25782 16.4516 5.37648 16.3558 5.47198C16.26 5.56765 16.1412 5.61548 15.9995 5.61548H7.99954Z" fill="white"/>
</g>
</svg>
