<svg width="24" height="25" viewBox="0 0 24 25" fill="none" xmlns="http://www.w3.org/2000/svg">
<mask id="mask0_2068_2550" style="mask-type:alpha" maskUnits="userSpaceOnUse" x="0" y="0" width="24" height="25">
<rect y="0.5" width="24" height="24" fill="#D9D9D9"/>
</mask>
<g mask="url(#mask0_2068_2550)">
<path d="M12.525 18.5249C12.1917 18.7416 11.8542 18.7541 11.5125 18.5624C11.1708 18.3708 11 18.0749 11 17.6749V13.4999H3C2.71667 13.4999 2.47917 13.4041 2.2875 13.2124C2.09583 13.0208 2 12.7833 2 12.4999C2 12.2166 2.09583 11.9791 2.2875 11.7874C2.47917 11.5958 2.71667 11.4999 3 11.4999H11V7.32494C11 6.92494 11.1708 6.62911 11.5125 6.43744C11.8542 6.24577 12.1917 6.25827 12.525 6.47494L20.675 11.6499C20.9917 11.8499 21.15 12.1333 21.15 12.4999C21.15 12.8666 20.9917 13.1499 20.675 13.3499L12.525 18.5249Z" fill="white"/>
</g>
</svg>
