<svg width="40" height="40" viewBox="0 0 40 40" fill="none" xmlns="http://www.w3.org/2000/svg">
<mask id="mask0_2068_2089" style="mask-type:alpha" maskUnits="userSpaceOnUse" x="0" y="0" width="40" height="40">
<rect width="40" height="40" fill="#D9D9D9"/>
</mask>
<g mask="url(#mask0_2068_2089)">
<path d="M31.0902 14.4871C29.6883 14.4871 28.4709 14.0363 27.4382 13.1346C26.4051 12.233 25.7902 11.1027 25.5936 9.74379H14.3661C14.1886 10.953 13.6762 11.9866 12.829 12.8446C11.9818 13.7024 10.9536 14.22 9.7444 14.3975V25.593C11.1033 25.7896 12.2336 26.4045 13.1352 27.4375C14.0369 28.4703 14.4877 29.6877 14.4877 31.0896C14.4877 32.6452 13.9472 33.9637 12.8661 35.045C11.785 36.1262 10.4666 36.6667 8.91107 36.6667C7.35551 36.6667 6.03704 36.1262 4.95565 35.045C3.87454 33.9637 3.33398 32.6452 3.33398 31.0896C3.33398 29.6877 3.78482 28.4703 4.68648 27.4375C5.58815 26.4045 6.71857 25.7896 8.07773 25.593V14.3975C6.71857 14.2009 5.58815 13.5887 4.68648 12.5609C3.78482 11.5331 3.33398 10.3163 3.33398 8.91046C3.33398 7.3549 3.8769 6.03643 4.96273 4.95504C6.04857 3.87393 7.35398 3.33337 8.87898 3.33337C10.2848 3.33337 11.5016 3.78421 12.5294 4.68587C13.5572 5.58754 14.1694 6.71796 14.3661 8.07712H25.5936C25.7902 6.71796 26.4051 5.58754 27.4382 4.68587C28.4709 3.78421 29.6883 3.33337 31.0902 3.33337C32.6241 3.33337 33.937 3.87949 35.029 4.97171C36.1212 6.06365 36.6673 7.37657 36.6673 8.91046C36.6673 10.466 36.1212 11.7843 35.029 12.8655C33.937 13.9466 32.6241 14.4871 31.0902 14.4871ZM8.89065 35.0321C9.99176 35.0321 10.9222 34.6453 11.6819 33.8717C12.4413 33.0984 12.8211 32.1778 12.8211 31.11C12.8211 30.0089 12.4413 29.0785 11.6819 28.3188C10.9222 27.5593 9.99176 27.1796 8.89065 27.1796C7.82287 27.1796 6.90232 27.5593 6.12898 28.3188C5.35537 29.0785 4.96857 30.0089 4.96857 31.11C4.96857 32.1778 5.35537 33.0984 6.12898 33.8717C6.90232 34.6453 7.82287 35.0321 8.89065 35.0321ZM8.89065 12.8525C9.99176 12.8525 10.9222 12.4662 11.6819 11.6934C12.4413 10.9206 12.8211 9.99171 12.8211 8.90671C12.8211 7.82143 12.4413 6.89907 11.6819 6.13962C10.9222 5.3799 9.99176 5.00004 8.89065 5.00004C7.82287 5.00004 6.90232 5.3799 6.12898 6.13962C5.35537 6.89907 4.96857 7.82143 4.96857 8.90671C4.96857 9.99171 5.35537 10.9206 6.12898 11.6934C6.90232 12.4662 7.82287 12.8525 8.89065 12.8525ZM31.0902 36.6667C29.5347 36.6667 28.2163 36.1262 27.1352 35.045C26.0541 33.9637 25.5136 32.653 25.5136 31.113C25.5136 29.573 26.0541 28.2546 27.1352 27.158C28.2163 26.0613 29.5347 25.513 31.0902 25.513C32.6458 25.513 33.9643 26.0613 35.0457 27.158C36.1268 28.2546 36.6673 29.573 36.6673 31.113C36.6673 32.653 36.1268 33.9637 35.0457 35.045C33.9643 36.1262 32.6458 36.6667 31.0902 36.6667ZM31.094 35.0321C32.1793 35.0321 33.1016 34.6453 33.8611 33.8717C34.6208 33.0984 35.0007 32.1778 35.0007 31.11C35.0007 30.0089 34.6208 29.0785 33.8611 28.3188C33.1016 27.5593 32.1793 27.1796 31.094 27.1796C30.009 27.1796 29.0801 27.5593 28.3073 28.3188C27.5345 29.0785 27.1481 30.0089 27.1481 31.11C27.1481 32.1778 27.5345 33.0984 28.3073 33.8717C29.0801 34.6453 30.009 35.0321 31.094 35.0321ZM31.094 12.8525C32.1793 12.8525 33.1016 12.4662 33.8611 11.6934C34.6208 10.9206 35.0007 9.99171 35.0007 8.90671C35.0007 7.82143 34.6208 6.89907 33.8611 6.13962C33.1016 5.3799 32.1793 5.00004 31.094 5.00004C30.009 5.00004 29.0801 5.3799 28.3073 6.13962C27.5345 6.89907 27.1481 7.82143 27.1481 8.90671C27.1481 9.99171 27.5345 10.9206 28.3073 11.6934C29.0801 12.4662 30.009 12.8525 31.094 12.8525Z" fill="white"/>
</g>
</svg>
