<svg width="40" height="40" viewBox="0 0 40 40" fill="none" xmlns="http://www.w3.org/2000/svg">
<rect width="40" height="40" rx="20" fill="#242628"/>
<mask id="mask0_2068_1929" style="mask-type:alpha" maskUnits="userSpaceOnUse" x="10" y="10" width="20" height="20">
<rect x="10" y="10" width="20" height="20" fill="#D9D9D9"/>
</mask>
<g mask="url(#mask0_2068_1929)">
<path d="M19.152 26.2964L18.1824 25.4295C17.0382 24.4038 16.0777 23.5048 15.3009 22.7323C14.5243 21.9599 13.8953 21.2532 13.4141 20.612C12.9327 19.9711 12.5884 19.3696 12.3811 18.8077C12.1739 18.2457 12.0703 17.6666 12.0703 17.0704C12.0703 15.8877 12.4691 14.8998 13.2666 14.1066C14.0641 13.3133 15.0541 12.9166 16.2368 12.9166C16.9644 12.9166 17.6533 13.0868 18.3034 13.427C18.9534 13.7673 19.5215 14.2553 20.0076 14.891C20.4991 14.2553 21.0673 13.7673 21.712 13.427C22.3568 13.0868 23.043 12.9166 23.7705 12.9166C24.9532 12.9166 25.9433 13.3133 26.7409 14.1066C27.5384 14.8998 27.9372 15.8877 27.9372 17.0704C27.9372 17.6666 27.8336 18.2457 27.6264 18.8077C27.419 19.3696 27.0747 19.9711 26.5934 20.612C26.112 21.2532 25.483 21.9599 24.7064 22.7323C23.9297 23.5048 22.9692 24.4038 21.8249 25.4295L20.8634 26.2885C20.7448 26.4089 20.6101 26.4938 20.4593 26.5431C20.3083 26.5923 20.1574 26.6168 20.0066 26.6168C19.8556 26.6168 19.7056 26.5923 19.5566 26.5433C19.4075 26.4941 19.2727 26.4118 19.152 26.2964ZM13.7305 18.7018H26.2849C26.427 18.4049 26.5295 18.1246 26.5926 17.861C26.6557 17.5975 26.6872 17.334 26.6872 17.0704C26.6872 16.2348 26.4016 15.542 25.8305 14.9918C25.2595 14.4417 24.5729 14.1666 23.7705 14.1666C23.1712 14.1666 22.6175 14.3234 22.1095 14.637C21.6014 14.9505 21.13 15.4016 20.6951 15.9904C20.6086 16.1047 20.5066 16.1952 20.3891 16.262C20.2716 16.3288 20.1444 16.3623 20.0076 16.3623C19.8709 16.3623 19.7439 16.3288 19.6264 16.262C19.5089 16.1952 19.4068 16.1047 19.3203 15.9904C18.8855 15.4016 18.4121 14.9505 17.9003 14.637C17.3885 14.3234 16.834 14.1666 16.2368 14.1666C15.4345 14.1666 14.7479 14.4417 14.1768 14.9918C13.6057 15.542 13.3201 16.2348 13.3201 17.0704C13.3201 17.334 13.353 17.5975 13.4189 17.861C13.4845 18.1246 13.5884 18.4049 13.7305 18.7018ZM15.8716 21.5225H24.1439C24.4302 21.2222 24.6851 20.9447 24.9084 20.69C25.1316 20.4351 25.3303 20.1891 25.5045 19.9518H14.5028C14.6824 20.1891 14.8838 20.4351 15.107 20.69C15.3303 20.9447 15.5852 21.2222 15.8716 21.5225ZM20.0076 25.3623C20.5718 24.8643 21.0913 24.403 21.5661 23.9783C22.0411 23.5536 22.4752 23.1516 22.8682 22.7725H17.1472C17.5402 23.1516 17.9743 23.5536 18.4493 23.9783C18.9241 24.403 19.4436 24.8643 20.0076 25.3623Z" fill="white"/>
</g>
</svg>
