<svg width="40" height="40" viewBox="0 0 40 40" fill="none" xmlns="http://www.w3.org/2000/svg">
<rect width="40" height="40" rx="20" fill="#242628"/>
<mask id="mask0_2068_1947" style="mask-type:alpha" maskUnits="userSpaceOnUse" x="10" y="10" width="20" height="20">
<rect x="10" y="10" width="20" height="20" fill="#D9D9D9"/>
</mask>
<g mask="url(#mask0_2068_1947)">
<path d="M15.834 20.625H21.6673C21.8447 20.625 21.9932 20.5651 22.1127 20.4454C22.2325 20.3258 22.2923 20.1774 22.2923 20C22.2923 19.8226 22.2325 19.6742 22.1127 19.5546C21.9932 19.4349 21.8447 19.375 21.6673 19.375H15.834C15.6566 19.375 15.5082 19.4349 15.3886 19.5546C15.2688 19.6742 15.209 19.8226 15.209 20C15.209 20.1774 15.2688 20.3258 15.3886 20.4454C15.5082 20.5651 15.6566 20.625 15.834 20.625ZM15.834 18.125H21.6673C21.8447 18.125 21.9932 18.0651 22.1127 17.9454C22.2325 17.8258 22.2923 17.6774 22.2923 17.5C22.2923 17.3226 22.2325 17.1742 22.1127 17.0546C21.9932 16.9349 21.8447 16.875 21.6673 16.875H15.834C15.6566 16.875 15.5082 16.9349 15.3886 17.0546C15.2688 17.1742 15.209 17.3226 15.209 17.5C15.209 17.6774 15.2688 17.8258 15.3886 17.9454C15.5082 18.0651 15.6566 18.125 15.834 18.125ZM13.5904 26.25C13.1695 26.25 12.8132 26.1042 12.5215 25.8125C12.2298 25.5208 12.084 25.1645 12.084 24.7435V15.2565C12.084 14.8355 12.2298 14.4792 12.5215 14.1875C12.8132 13.8958 13.1695 13.75 13.5904 13.75H26.4109C26.8318 13.75 27.1882 13.8958 27.4798 14.1875C27.7715 14.4792 27.9173 14.8355 27.9173 15.2565V24.7435C27.9173 25.1645 27.7715 25.5208 27.4798 25.8125C27.1882 26.1042 26.8318 26.25 26.4109 26.25H13.5904ZM13.5904 25H26.4109C26.475 25 26.5338 24.9733 26.5871 24.9198C26.6406 24.8665 26.6673 24.8077 26.6673 24.7435V15.2565C26.6673 15.1923 26.6406 15.1335 26.5871 15.0802C26.5338 15.0267 26.475 15 26.4109 15H13.5904C13.5263 15 13.4675 15.0267 13.4142 15.0802C13.3607 15.1335 13.334 15.1923 13.334 15.2565V24.7435C13.334 24.8077 13.3607 24.8665 13.4142 24.9198C13.4675 24.9733 13.5263 25 13.5904 25Z" fill="white"/>
</g>
</svg>
