<svg width="40" height="40" viewBox="0 0 40 40" fill="none" xmlns="http://www.w3.org/2000/svg">
<rect width="40" height="40" rx="20" fill="#242628"/>
<mask id="mask0_2068_1941" style="mask-type:alpha" maskUnits="userSpaceOnUse" x="10" y="10" width="20" height="20">
<rect x="10" y="10" width="20" height="20" fill="#D9D9D9"/>
</mask>
<g mask="url(#mask0_2068_1941)">
<path d="M23.4207 21.9231L26.4511 19.319L26.7845 19.3446C26.9677 19.3664 27.1104 19.4426 27.2128 19.5731C27.315 19.7037 27.3661 19.8452 27.3661 19.9975C27.3661 20.0846 27.3499 20.1701 27.3174 20.254C27.2849 20.338 27.2253 20.4115 27.1386 20.4744L24.9078 22.4183L25.5778 25.335C25.5863 25.3565 25.5905 25.3808 25.5905 25.4079V25.4808C25.5905 25.6646 25.5273 25.8176 25.4007 25.9398C25.2741 26.0622 25.1237 26.1233 24.9497 26.1233C24.8952 26.1233 24.8381 26.117 24.7782 26.1042C24.7184 26.0914 24.6617 26.0668 24.6082 26.0304L24.3391 25.8638L23.4207 21.9231ZM21.6468 16.4248L20.8039 14.4471L20.9193 14.1652C20.9722 14.0344 21.0543 13.9336 21.1657 13.8627C21.277 13.7919 21.3926 13.7565 21.5126 13.7565C21.6326 13.7565 21.7498 13.7901 21.8643 13.8575C21.9789 13.9247 22.0629 14.023 22.1164 14.1523L23.1339 16.5642L21.6468 16.4248ZM16.1259 24.0208L18.7509 22.4375L21.3759 24.0417L20.6884 21.0417L23.0009 19.0417L19.9593 18.7708L18.7509 15.9375L17.5426 18.75L14.5009 19.0208L16.8134 21.0417L16.1259 24.0208ZM14.6276 24.9023L15.4241 21.4936L12.7782 19.2004C12.6831 19.1224 12.6168 19.034 12.5795 18.9354C12.5421 18.8368 12.5234 18.7381 12.5234 18.6394C12.5234 18.4627 12.5841 18.2986 12.7053 18.1471C12.8266 17.9957 12.9945 17.9088 13.2093 17.8863L16.702 17.5796L18.0522 14.3688C18.115 14.2181 18.2123 14.1051 18.3441 14.0298C18.4759 13.9544 18.6108 13.9167 18.7489 13.9167C18.887 13.9167 19.0225 13.9544 19.1553 14.0298C19.2882 14.1051 19.3864 14.2181 19.4497 14.3688L20.7999 17.5796L24.2926 17.8863C24.5073 17.9088 24.6753 17.9956 24.7966 18.1469C24.9178 18.2983 24.9784 18.4622 24.9784 18.6388C24.9784 18.7396 24.9598 18.8389 24.9224 18.9367C24.885 19.0345 24.8188 19.1224 24.7236 19.2004L22.0778 21.4936L22.877 24.9025C22.8891 24.9386 22.8951 24.9945 22.8951 25.0702C22.8951 25.2847 22.82 25.4644 22.6697 25.6094C22.5194 25.7544 22.3441 25.8269 22.1439 25.8269C22.1062 25.8269 21.9731 25.7879 21.7445 25.7098L18.7509 23.9071L15.7574 25.7098C15.6932 25.7462 15.6266 25.7748 15.5576 25.7956C15.4886 25.8165 15.4227 25.8269 15.3599 25.8269C15.1339 25.8269 14.9393 25.7356 14.7761 25.5529C14.613 25.3701 14.5634 25.1533 14.6276 24.9023Z" fill="white"/>
</g>
</svg>
