<svg width="40" height="40" viewBox="0 0 40 40" fill="none" xmlns="http://www.w3.org/2000/svg">
<rect width="40" height="40" rx="20" fill="#242628"/>
<mask id="mask0_2068_1935" style="mask-type:alpha" maskUnits="userSpaceOnUse" x="10" y="10" width="20" height="20">
<rect x="10" y="10" width="20" height="20" fill="#D9D9D9"/>
</mask>
<g mask="url(#mask0_2068_1935)">
<path d="M15.1288 24.7596H19.8725V24.5127C19.8725 24.3002 19.8136 24.1034 19.6957 23.9221C19.5779 23.7407 19.4135 23.6 19.2025 23.5C18.93 23.3803 18.6541 23.2906 18.3748 23.2309C18.0955 23.171 17.8041 23.1411 17.5007 23.1411C17.1972 23.1411 16.9058 23.171 16.6265 23.2309C16.3472 23.2906 16.0713 23.3803 15.7988 23.5C15.5878 23.6 15.4234 23.7407 15.3057 23.9221C15.1877 24.1034 15.1288 24.3002 15.1288 24.5127V24.7596ZM22.1642 23.4936H24.5038C24.6474 23.4936 24.7661 23.4467 24.8598 23.353C24.9537 23.2592 25.0007 23.1406 25.0007 22.9971C25.0007 22.8538 24.9537 22.7351 24.8598 22.6411C24.7661 22.5471 24.6474 22.5 24.5038 22.5H22.1642C22.0206 22.5 21.9019 22.5469 21.8082 22.6407C21.7143 22.7344 21.6673 22.853 21.6673 22.9965C21.6673 23.1398 21.7143 23.2585 21.8082 23.3525C21.9019 23.4466 22.0206 23.4936 22.1642 23.4936ZM17.4988 22.5C17.8099 22.5 18.075 22.3912 18.294 22.1734C18.513 21.9556 18.6225 21.6912 18.6225 21.38C18.6225 21.0691 18.5136 20.8041 18.2959 20.585C18.0781 20.366 17.8136 20.2565 17.5025 20.2565C17.1914 20.2565 16.9263 20.3654 16.7073 20.5832C16.4883 20.8009 16.3788 21.0653 16.3788 21.3763C16.3788 21.6874 16.4877 21.9525 16.7054 22.1715C16.9232 22.3905 17.1877 22.5 17.4988 22.5ZM22.1642 21.25H24.5038C24.6474 21.25 24.7661 21.2032 24.8598 21.1094C24.9537 21.0157 25.0007 20.8971 25.0007 20.7536C25.0007 20.6102 24.9537 20.4916 24.8598 20.3975C24.7661 20.3035 24.6474 20.2565 24.5038 20.2565H22.1642C22.0206 20.2565 21.9019 20.3034 21.8082 20.3971C21.7143 20.4909 21.6673 20.6095 21.6673 20.753C21.6673 20.8963 21.7143 21.015 21.8082 21.109C21.9019 21.203 22.0206 21.25 22.1642 21.25ZM13.5904 27.9167C13.1695 27.9167 12.8132 27.7709 12.5215 27.4792C12.2298 27.1875 12.084 26.8312 12.084 26.4102V17.7565C12.084 17.3355 12.2298 16.9792 12.5215 16.6875C12.8132 16.3959 13.1695 16.25 13.5904 16.25H17.9173V13.3334C17.9173 12.9896 18.0397 12.6954 18.2846 12.4507C18.5293 12.2058 18.8236 12.0834 19.1673 12.0834H20.834C21.1777 12.0834 21.472 12.2058 21.7167 12.4507C21.9616 12.6954 22.084 12.9896 22.084 13.3334V16.25H26.4109C26.8318 16.25 27.1882 16.3959 27.4798 16.6875C27.7715 16.9792 27.9173 17.3355 27.9173 17.7565V26.4102C27.9173 26.8312 27.7715 27.1875 27.4798 27.4792C27.1882 27.7709 26.8318 27.9167 26.4109 27.9167H13.5904ZM13.5904 26.6667H26.4109C26.4857 26.6667 26.5472 26.6427 26.5952 26.5946C26.6433 26.5466 26.6673 26.4851 26.6673 26.4102V17.7565C26.6673 17.6816 26.6433 17.6202 26.5952 17.5721C26.5472 17.5241 26.4857 17.5 26.4109 17.5H22.084V17.8207C22.084 18.1614 21.9609 18.4548 21.7146 18.7011C21.4684 18.9473 21.1748 19.0705 20.834 19.0705H19.1673C18.8265 19.0705 18.5329 18.9473 18.2867 18.7011C18.0404 18.4548 17.9173 18.1614 17.9173 17.8207V17.5H13.5904C13.5156 17.5 13.4541 17.5241 13.4061 17.5721C13.358 17.6202 13.334 17.6816 13.334 17.7565V26.4102C13.334 26.4851 13.358 26.5466 13.4061 26.5946C13.4541 26.6427 13.5156 26.6667 13.5904 26.6667ZM19.1673 17.8207H20.834V13.3334H19.1673V17.8207Z" fill="white"/>
</g>
</svg>
