<svg width="51" height="51" viewBox="0 0 51 51" fill="none" xmlns="http://www.w3.org/2000/svg">
<rect width="51" height="51" rx="25.5" fill="#6B461F"/>
<mask id="mask0_2068_1789" style="mask-type:alpha" maskUnits="userSpaceOnUse" x="11" y="11" width="30" height="30">
<rect x="11" y="11" width="30" height="30" fill="#D9D9D9"/>
</mask>
<g mask="url(#mask0_2068_1789)">
<path d="M27.69 16.9113L32.0338 20.375H34.7259C35.2532 20.375 35.7016 20.5597 36.0709 20.9291C36.4403 21.2985 36.625 21.7468 36.625 22.2741V35.375H15.375V23.2597C15.375 22.787 15.5822 22.448 15.9966 22.2428C16.4107 22.0378 16.8061 22.0755 17.1828 22.356L19.8944 24.3894L24.9616 17.291C25.282 16.8439 25.7102 16.5822 26.2463 16.506C26.7823 16.4299 27.2635 16.565 27.69 16.9113ZM17.25 24.75V29.25L21 32.25L26 25.375L34.75 32.1875V22.25H31.375L26.5 18.3438L20.3125 27.0313L17.25 24.75Z" fill="#FFF8E7"/>
</g>
</svg>
