<svg width="52" height="51" viewBox="0 0 52 51" fill="none" xmlns="http://www.w3.org/2000/svg">
<rect x="0.333984" width="51" height="51" rx="25.5" fill="#67292E"/>
<mask id="mask0_2068_1797" style="mask-type:alpha" maskUnits="userSpaceOnUse" x="11" y="11" width="31" height="30">
<rect x="11.334" y="11" width="30" height="30" fill="#D9D9D9"/>
</mask>
<g mask="url(#mask0_2068_1797)">
<path d="M15.6167 36.625C15.4048 36.625 15.2145 36.5732 15.0458 36.4697C14.877 36.3662 14.7459 36.2296 14.6523 36.06C14.5548 35.8917 14.5012 35.7094 14.4914 35.5131C14.4816 35.3169 14.5345 35.1225 14.6501 34.93L25.3511 16.445C25.4669 16.2525 25.6117 16.1102 25.7854 16.0181C25.9594 15.926 26.1425 15.88 26.3348 15.88C26.5271 15.88 26.7102 15.926 26.8842 16.0181C27.0579 16.1102 27.2027 16.2525 27.3186 16.445L38.0195 34.93C38.1351 35.1225 38.188 35.3169 38.1783 35.5131C38.1685 35.7094 38.1148 35.8917 38.0173 36.06C37.9238 36.2296 37.7926 36.3662 37.6239 36.4697C37.4551 36.5732 37.2648 36.625 37.0529 36.625H15.6167ZM16.8973 34.75H35.7723L26.3348 18.5L16.8973 34.75ZM26.3348 33.2597C26.6209 33.2597 26.8607 33.1629 27.0542 32.9694C27.2477 32.7758 27.3445 32.536 27.3445 32.25C27.3445 31.964 27.2477 31.7242 27.0542 31.5306C26.8607 31.3371 26.6209 31.2403 26.3348 31.2403C26.0488 31.2403 25.809 31.3371 25.6154 31.5306C25.4219 31.7242 25.3251 31.964 25.3251 32.25C25.3251 32.536 25.4219 32.7758 25.6154 32.9694C25.809 33.1629 26.0488 33.2597 26.3348 33.2597ZM26.3351 29.9903C26.601 29.9903 26.8236 29.9005 27.0029 29.7209C27.1825 29.5412 27.2723 29.3184 27.2723 29.0528V24.6778C27.2723 24.4122 27.1824 24.1896 27.0026 24.01C26.8228 23.8302 26.6001 23.7403 26.3345 23.7403C26.0687 23.7403 25.8461 23.8302 25.6667 24.01C25.4871 24.1896 25.3973 24.4122 25.3973 24.6778V29.0528C25.3973 29.3184 25.4872 29.5412 25.667 29.7209C25.8468 29.9005 26.0695 29.9903 26.3351 29.9903Z" fill="#FFD8D8"/>
</g>
</svg>
