<svg width="52" height="51" viewBox="0 0 52 51" fill="none" xmlns="http://www.w3.org/2000/svg">
<rect x="0.666016" width="51" height="51" rx="25.5" fill="#1F6B57"/>
<mask id="mask0_2068_1805" style="mask-type:alpha" maskUnits="userSpaceOnUse" x="11" y="11" width="31" height="30">
<rect x="11.666" y="11" width="30" height="30" fill="#1F6B57"/>
</mask>
<g mask="url(#mask0_2068_1805)">
<path d="M15.9487 36.625C15.7368 36.625 15.5465 36.5732 15.3778 36.4697C15.209 36.3662 15.0779 36.2296 14.9843 36.06C14.8868 35.8917 14.8332 35.7094 14.8234 35.5131C14.8136 35.3169 14.8665 35.1225 14.9822 34.93L25.6831 16.445C25.7989 16.2525 25.9437 16.1102 26.1175 16.0181C26.2914 15.926 26.4746 15.88 26.6669 15.88C26.8591 15.88 27.0423 15.926 27.2162 16.0181C27.39 16.1102 27.5348 16.2525 27.6506 16.445L38.3515 34.93C38.4672 35.1225 38.5201 35.3169 38.5103 35.5131C38.5005 35.7094 38.4469 35.8917 38.3494 36.06C38.2558 36.2296 38.1247 36.3662 37.9559 36.4697C37.7872 36.5732 37.5968 36.625 37.385 36.625H15.9487ZM17.2293 34.75H36.1043L26.6669 18.5L17.2293 34.75ZM26.6669 33.2597C26.9529 33.2597 27.1927 33.1629 27.3862 32.9694C27.5798 32.7758 27.6765 32.536 27.6765 32.25C27.6765 31.964 27.5798 31.7242 27.3862 31.5306C27.1927 31.3371 26.9529 31.2403 26.6669 31.2403C26.3808 31.2403 26.141 31.3371 25.9475 31.5306C25.7539 31.7242 25.6572 31.964 25.6572 32.25C25.6572 32.536 25.7539 32.7758 25.9475 32.9694C26.141 33.1629 26.3808 33.2597 26.6669 33.2597ZM26.6672 29.9903C26.933 29.9903 27.1556 29.9005 27.335 29.7209C27.5146 29.5412 27.6044 29.3184 27.6044 29.0528V24.6778C27.6044 24.4122 27.5145 24.1896 27.3347 24.01C27.1549 23.8302 26.9322 23.7403 26.6665 23.7403C26.4007 23.7403 26.1781 23.8302 25.9987 24.01C25.8191 24.1896 25.7294 24.4122 25.7294 24.6778V29.0528C25.7294 29.3184 25.8192 29.5412 25.999 29.7209C26.1788 29.9005 26.4015 29.9903 26.6672 29.9903Z" fill="#CFFFF2"/>
</g>
</svg>
