<svg width="30" height="30" viewBox="0 0 30 30" fill="none" xmlns="http://www.w3.org/2000/svg">
<path d="M12.9125 9.38751C13.5375 9.20001 14.225 9.07501 15 9.07501C18.45 9.07501 21.25 11.875 21.25 15.325C21.25 18.775 18.45 21.575 15 21.575C11.55 21.575 8.75 18.775 8.75 15.325C8.75 14.0375 9.1375 12.85 9.8 11.85" stroke="white" stroke-width="2" stroke-linecap="round" stroke-linejoin="round"/>
<path d="M12.0254 9.56249L14.1004 7.17499" stroke="white" stroke-width="2" stroke-linecap="round" stroke-linejoin="round"/>
<path d="M12.0254 9.5625L14.4504 11.3375" stroke="white" stroke-width="2" stroke-linecap="round" stroke-linejoin="round"/>
<path d="M11.25 27.5H18.75C25 27.5 27.5 25 27.5 18.75V11.25C27.5 5 25 2.5 18.75 2.5H11.25C5 2.5 2.5 5 2.5 11.25V18.75C2.5 25 5 27.5 11.25 27.5Z" stroke="white" stroke-width="2" stroke-linecap="round" stroke-linejoin="round"/>
</svg>
