<svg width="20" height="20" viewBox="0 0 20 20" fill="none" xmlns="http://www.w3.org/2000/svg">
<path d="M10.0003 1.66669C5.40033 1.66669 1.66699 5.40002 1.66699 10C1.66699 14.6 5.40033 18.3334 10.0003 18.3334C14.6003 18.3334 18.3337 14.6 18.3337 10C18.3337 5.40002 14.6003 1.66669 10.0003 1.66669ZM14.3253 13.2834C14.292 13.3584 14.2503 13.425 14.192 13.4834L12.7837 14.8917C12.6587 15.0167 12.5003 15.075 12.342 15.075C12.1837 15.075 12.0253 15.0167 11.9003 14.8917C11.6587 14.65 11.6587 14.25 11.9003 14.0084L12.242 13.6667H7.58366C6.50033 13.6667 5.62533 12.7834 5.62533 11.7084V10.2334C5.62533 9.89169 5.90866 9.60835 6.25033 9.60835C6.59199 9.60835 6.87533 9.89169 6.87533 10.2334V11.7084C6.87533 12.1 7.19199 12.4167 7.58366 12.4167H12.242L11.9003 12.075C11.6587 11.8334 11.6587 11.4334 11.9003 11.1917C12.142 10.95 12.542 10.95 12.7837 11.1917L14.192 12.6C14.2503 12.6584 14.292 12.725 14.3253 12.8C14.392 12.9584 14.392 13.1334 14.3253 13.2834ZM14.3753 9.76669C14.3753 10.1084 14.092 10.3917 13.7503 10.3917C13.4087 10.3917 13.1253 10.1084 13.1253 9.76669V8.29169C13.1253 7.90002 12.8087 7.58335 12.417 7.58335H7.75866L8.10033 7.91669C8.34199 8.15835 8.34199 8.55835 8.10033 8.80002C7.97533 8.92502 7.81699 8.98335 7.65866 8.98335C7.50033 8.98335 7.34199 8.92502 7.21699 8.80002L5.80866 7.39169C5.75033 7.33335 5.70866 7.26669 5.67533 7.19169C5.60866 7.04169 5.60866 6.86669 5.67533 6.71669C5.70866 6.64169 5.75033 6.56669 5.80866 6.50835L7.21699 5.10002C7.45866 4.85835 7.85866 4.85835 8.10033 5.10002C8.34199 5.34169 8.34199 5.74169 8.10033 5.98335L7.75866 6.32502H12.417C13.5003 6.32502 14.3753 7.20835 14.3753 8.28335V9.76669Z" fill="white"/>
</svg>
