<svg width="25" height="24" viewBox="0 0 25 24" fill="none" xmlns="http://www.w3.org/2000/svg">
<mask id="mask0_2002_73" style="mask-type:alpha" maskUnits="userSpaceOnUse" x="0" y="0" width="25" height="24">
<rect x="0.5" width="24" height="24" fill="#D9D9D9"/>
</mask>
<g mask="url(#mask0_2002_73)">
<path d="M12.5001 16.9673L8.1674 19.573C8.02256 19.6577 7.87739 19.6933 7.73189 19.6798C7.58639 19.6663 7.45465 19.6173 7.33665 19.5328C7.21881 19.4481 7.12781 19.3375 7.06365 19.201C6.99948 19.0645 6.98923 18.9135 7.0329 18.748L8.1809 13.85L4.35215 10.5403C4.22398 10.4288 4.14381 10.2996 4.11165 10.1528C4.07965 10.0061 4.09056 9.86353 4.1444 9.72503C4.19823 9.58653 4.27581 9.47336 4.37715 9.38553C4.47831 9.29769 4.61673 9.24036 4.7924 9.21353L9.8349 8.77878L11.7964 4.14628C11.8604 3.99111 11.9575 3.87636 12.0876 3.80203C12.2178 3.72769 12.3553 3.69053 12.5001 3.69053C12.645 3.69053 12.7825 3.72769 12.9126 3.80203C13.0428 3.87636 13.1399 3.99111 13.2039 4.14628L15.1751 8.77878L20.2174 9.21353C20.3931 9.24036 20.5316 9.29769 20.6329 9.38553C20.7341 9.47336 20.8116 9.58653 20.8654 9.72503C20.9194 9.86353 20.9303 10.0061 20.8981 10.1528C20.8661 10.2996 20.7861 10.4288 20.6579 10.5403L16.8289 13.85L17.9771 18.7578C18.0206 18.9231 18.0104 19.0724 17.9464 19.2058C17.8822 19.3391 17.7911 19.4481 17.6731 19.5328C17.5553 19.6173 17.4236 19.6663 17.2781 19.6798C17.1326 19.6933 16.9874 19.6577 16.8424 19.573L12.5001 16.9673ZM19.6829 5.94053L18.2886 6.75778C18.195 6.80128 18.1071 6.79711 18.0251 6.74528C17.9431 6.69328 17.9188 6.61536 17.9521 6.51153L18.3231 4.97703L17.0944 3.95378C17.0174 3.88328 16.994 3.80544 17.0241 3.72028C17.0543 3.63494 17.1213 3.58394 17.2251 3.56728L18.8501 3.42703L19.4771 1.96728C19.5105 1.87378 19.5791 1.82703 19.6829 1.82703C19.7867 1.82703 19.8553 1.87378 19.8886 1.96728L20.5154 3.42703L22.1404 3.56728C22.2444 3.58394 22.3114 3.63494 22.3414 3.72028C22.3716 3.80544 22.3482 3.88328 22.2714 3.95378L21.0424 4.97703L21.4136 6.51153C21.447 6.61536 21.4226 6.69328 21.3404 6.74528C21.2584 6.79711 21.1706 6.80128 21.0771 6.75778L19.6829 5.94053Z" fill="white"/>
</g>
</svg>
