<svg width="40" height="40" viewBox="0 0 40 40" fill="none" xmlns="http://www.w3.org/2000/svg">
<mask id="mask0_2068_2079" style="mask-type:alpha" maskUnits="userSpaceOnUse" x="0" y="0" width="40" height="40">
<rect width="40" height="40" fill="#D9D9D9"/>
</mask>
<g mask="url(#mask0_2068_2079)">
<path d="M19.99 35C17.9325 35 15.9929 34.6069 14.1712 33.8208C12.3496 33.0347 10.7586 31.9617 9.39833 30.6017C8.03833 29.2414 6.96528 27.6504 6.17917 25.8288C5.39306 24.0071 5 22.0675 5 20.01C5 17.9278 5.39472 15.9771 6.18417 14.1579C6.97389 12.339 8.04556 10.7528 9.39917 9.39917C10.7528 8.04556 12.3432 6.97389 14.1704 6.18417C15.9974 5.39472 17.9371 5 19.9896 5C22.0671 5 24.0167 5.39472 25.8383 6.18417C27.6597 6.97389 29.2472 8.04556 30.6008 9.39917C31.9544 10.7528 33.0261 12.339 33.8158 14.1579C34.6053 15.9771 35 17.9278 35 20.01C35 22.0675 34.6053 24.0086 33.8158 25.8333C33.0261 27.6581 31.9544 29.2472 30.6008 30.6008C29.2472 31.9544 27.661 33.0261 25.8421 33.8158C24.0229 34.6053 22.0722 35 19.99 35ZM20 27.5C21.5383 27.5 23.0511 27.7164 24.5383 28.1492C26.0256 28.5817 27.4103 29.2243 28.6925 30.0771C30.1839 28.8207 31.3301 27.3147 32.1313 25.5592C32.9326 23.8036 33.3333 21.9506 33.3333 20C33.3333 16.2778 32.0417 13.125 29.4583 10.5417C26.875 7.95833 23.7222 6.66667 20 6.66667C16.2778 6.66667 13.125 7.95833 10.5417 10.5417C7.95833 13.125 6.66667 16.2778 6.66667 20C6.66667 21.955 7.06569 23.8108 7.86375 25.5675C8.66181 27.3239 9.80972 28.8271 11.3075 30.0771C12.5897 29.2243 13.9744 28.5817 15.4617 28.1492C16.9489 27.7164 18.4617 27.5 20 27.5ZM20.005 29.1667C18.7344 29.1667 17.4935 29.3376 16.2821 29.6796C15.0704 30.0215 13.9144 30.5129 12.8142 31.1537C13.8719 31.859 15.0128 32.3986 16.2367 32.7725C17.4606 33.1464 18.7158 33.3333 20.0025 33.3333C21.2892 33.3333 22.5436 33.1464 23.7658 32.7725C24.9881 32.3986 26.1281 31.859 27.1858 31.1537C26.0856 30.5129 24.9312 30.0215 23.7229 29.6796C22.5146 29.3376 21.2753 29.1667 20.005 29.1667ZM11.6667 18.0129C12.0319 18.0129 12.3476 17.8799 12.6137 17.6137C12.8799 17.3476 13.0129 17.0319 13.0129 16.6667C13.0129 16.3014 12.8799 15.9857 12.6137 15.7196C12.3476 15.4535 12.0319 15.3204 11.6667 15.3204C11.3014 15.3204 10.9857 15.4535 10.7196 15.7196C10.4535 15.9857 10.3204 16.3014 10.3204 16.6667C10.3204 17.0319 10.4535 17.3476 10.7196 17.6137C10.9857 17.8799 11.3014 18.0129 11.6667 18.0129ZM16.6667 13.0129C17.0319 13.0129 17.3476 12.8799 17.6138 12.6137C17.8799 12.3476 18.0129 12.0319 18.0129 11.6667C18.0129 11.3014 17.8799 10.9857 17.6138 10.7196C17.3476 10.4535 17.0319 10.3204 16.6667 10.3204C16.3014 10.3204 15.9857 10.4535 15.7196 10.7196C15.4535 10.9857 15.3204 11.3014 15.3204 11.6667C15.3204 12.0319 15.4535 12.3476 15.7196 12.6137C15.9857 12.8799 16.3014 13.0129 16.6667 13.0129ZM28.3333 18.0129C28.6986 18.0129 29.0143 17.8799 29.2804 17.6137C29.5465 17.3476 29.6796 17.0319 29.6796 16.6667C29.6796 16.3014 29.5465 15.9857 29.2804 15.7196C29.0143 15.4535 28.6986 15.3204 28.3333 15.3204C27.9681 15.3204 27.6524 15.4535 27.3862 15.7196C27.1201 15.9857 26.9871 16.3014 26.9871 16.6667C26.9871 17.0319 27.1201 17.3476 27.3862 17.6137C27.6524 17.8799 27.9681 18.0129 28.3333 18.0129ZM20 22.5C20.7031 22.5 21.2954 22.259 21.7771 21.7771C22.259 21.2954 22.5 20.7031 22.5 20C22.5 19.6389 22.4285 19.3007 22.2854 18.9854C22.1421 18.6704 21.9486 18.3847 21.705 18.1283L24.3396 11.5C24.4274 11.2906 24.4236 11.0774 24.3283 10.8604C24.2333 10.6438 24.0794 10.4915 23.8667 10.4038C23.6672 10.3163 23.4596 10.3172 23.2437 10.4067C23.0279 10.4964 22.8783 10.6514 22.795 10.8717L20.0962 17.5C19.391 17.4681 18.7819 17.6951 18.2692 18.1812C17.7564 18.6674 17.5 19.2736 17.5 20C17.5 20.7031 17.741 21.2954 18.2229 21.7771C18.7046 22.259 19.2969 22.5 20 22.5Z" fill="white"/>
</g>
</svg>
