<svg width="40" height="40" viewBox="0 0 40 40" fill="none" xmlns="http://www.w3.org/2000/svg">
<mask id="mask0_2068_2099" style="mask-type:alpha" maskUnits="userSpaceOnUse" x="0" y="0" width="40" height="40">
<rect width="40" height="40" fill="#D9D9D9"/>
</mask>
<g mask="url(#mask0_2068_2099)">
<path d="M30.3498 26.9871L35.0007 16.1187V15.3204C35.0007 15.0213 34.9045 14.7756 34.7123 14.5833C34.5198 14.3911 34.274 14.295 33.9748 14.295H25.1415L26.0936 7.62167L22.3598 11.3238C22.2656 11.2296 22.0744 11.0367 21.7861 10.745C21.4975 10.4533 21.3062 10.2606 21.2123 10.1667L26.3469 5L27.0069 5.66042C27.3105 5.96375 27.5226 6.31042 27.6432 6.70042C27.764 7.09042 27.7934 7.49583 27.7315 7.91667L27.0519 12.6283H33.9748C34.7207 12.6283 35.3559 12.8906 35.8806 13.415C36.4051 13.9397 36.6673 14.5749 36.6673 15.3204V15.9262C36.6673 16.1057 36.6465 16.2851 36.6048 16.4646C36.5631 16.6443 36.5113 16.8132 36.4494 16.9713L32.7665 25.6188C32.5956 26.0374 32.3179 26.3701 31.9332 26.6171C31.5487 26.8638 31.13 26.9871 30.6769 26.9871H30.3498ZM9.61607 33.3333H3.33398V18.9742H9.61607V20.6408H5.00065V31.6667H9.61607V33.3333ZM20.9015 33.3333H7.9494V20.1283L16.6994 11.3463L17.3598 12.0063C17.6631 12.3099 17.8805 12.6619 18.0119 13.0625C18.1433 13.4631 18.178 13.8739 18.1161 14.295L17.4365 18.9742H24.4877C25.2336 18.9742 25.8687 19.2365 26.3932 19.7612C26.9179 20.2857 27.1802 20.9208 27.1802 21.6667V22.3142C27.1802 22.4936 27.1594 22.6661 27.1177 22.8317C27.0761 22.9972 27.0243 23.1697 26.9623 23.3492L23.3757 31.7179C23.162 32.2221 22.8308 32.6174 22.3819 32.9038C21.9333 33.1901 21.4398 33.3333 20.9015 33.3333ZM21.5744 31.6667L25.5136 22.5063V21.6667C25.5136 21.3675 25.4173 21.1218 25.2248 20.9296C25.0326 20.7371 24.7869 20.6408 24.4877 20.6408H15.4944L16.4461 13.9679L9.61607 20.83V31.6667H21.5744Z" fill="white"/>
</g>
</svg>
